<?xml version="1.0" encoding="utf-8"?>
<!-- Generator: Adobe Illustrator 16.0.0, SVG Export Plug-In . SVG Version: 6.00 Build 0)  -->
<!DOCTYPE svg PUBLIC "-//W3C//DTD SVG 1.1//EN" "http://www.w3.org/Graphics/SVG/1.1/DTD/svg11.dtd">
<svg version="1.1" id="Layer_1" xmlns="http://www.w3.org/2000/svg" xmlns:xlink="http://www.w3.org/1999/xlink" x="0px" y="0px"
	 width="1133.426px" height="1327.6px" viewBox="0 0 1133.426 1327.6" enable-background="new 0 0 1133.426 1327.6"
	 xml:space="preserve">
<polygon fill="#00A651" stroke="#FFFFFF" stroke-miterlimit="10" points="818.715,406.438 794.102,392.721 804.463,374.165 
	829.045,387.891 "/>
<polygon fill="#00A651" stroke="#FFFFFF" stroke-miterlimit="10" points="804.463,374.164 779.872,360.445 790.209,341.902 
	814.818,355.627 "/>
<polygon fill="#00A651" stroke="#FFFFFF" stroke-miterlimit="10" points="786.043,315.264 761.461,301.538 771.809,282.994 
	796.402,296.723 "/>
<polygon fill="#00A651" stroke="#FFFFFF" stroke-miterlimit="10" points="664.15,149.971 673.625,133.01 693.391,155.375 
	688.74,163.688 "/>
<polygon fill="#00A651" stroke="#FFFFFF" stroke-miterlimit="10" points="857.807,428.256 833.217,414.527 846.814,390.164 
	871.559,403.975 "/>
<polygon fill="#00A651" stroke="#FFFFFF" stroke-miterlimit="10" points="739.822,313.788 715.221,300.061 725.568,281.513 
	750.159,295.245 "/>
<polygon fill="#00A651" stroke="#FFFFFF" stroke-miterlimit="10" points="760.514,276.694 735.906,262.966 746.264,244.427 
	770.868,258.151 "/>
<polygon fill="#00A651" stroke="#FFFFFF" stroke-miterlimit="10" points="626.678,274.964 602.068,261.236 612.418,242.7 
	637.01,256.419 "/>
<polygon fill="#00A651" stroke="#FFFFFF" stroke-miterlimit="10" points="637.01,256.419 612.418,242.698 622.775,224.147 
	647.355,237.872 "/>
<polygon fill="#00A651" stroke="#FFFFFF" stroke-miterlimit="10" points="647.355,237.872 622.775,224.144 633.107,205.606 
	657.697,219.332 "/>
<polygon fill="#00A651" stroke="#FFFFFF" stroke-miterlimit="10" points="657.697,219.332 633.107,205.604 643.461,187.065 
	668.055,200.782 "/>
<polygon fill="#00A651" stroke="#FFFFFF" stroke-miterlimit="10" points="668.055,200.783 643.461,187.064 653.803,168.515 
	678.4,182.239 "/>
<polygon fill="#00A651" stroke="#FFFFFF" stroke-miterlimit="10" points="630.827,301.602 641.18,283.063 665.773,296.788 
	655.42,315.33 "/>
<polygon fill="#00A651" stroke="#FFFFFF" stroke-miterlimit="10" points="655.42,315.329 665.773,296.788 690.365,310.503 
	680.006,329.055 "/>
<polygon fill="#00A651" stroke="#FFFFFF" stroke-miterlimit="10" points="690.366,310.503 665.773,296.788 676.118,278.234 
	700.695,291.963 "/>
<polygon fill="#00A651" stroke="#FFFFFF" stroke-miterlimit="10" points="665.773,296.788 641.18,283.063 651.529,264.512 
	676.118,278.233 "/>
<polygon fill="#00A651" stroke="#FFFFFF" stroke-miterlimit="10" points="676.118,278.234 651.529,264.509 661.861,245.971 
	686.465,259.695 "/>
<polygon fill="#00A651" stroke="#FFFFFF" stroke-miterlimit="10" points="700.695,291.963 676.118,278.233 686.465,259.697 
	711.055,273.412 "/>
<polygon fill="#00A651" stroke="#FFFFFF" stroke-miterlimit="10" points="711.055,273.412 686.465,259.695 696.797,241.147 
	721.411,254.867 "/>
<polygon fill="#00A651" stroke="#FFFFFF" stroke-miterlimit="10" points="686.465,259.695 661.861,245.969 672.223,227.428 
	696.799,241.146 "/>
<polygon fill="#00A651" stroke="#FFFFFF" stroke-miterlimit="10" points="696.797,241.146 672.223,227.427 682.572,208.877 
	707.166,222.605 "/>
<polygon fill="#00A651" stroke="#FFFFFF" stroke-miterlimit="10" points="696.797,241.146 707.166,222.605 731.745,236.328 
	721.411,254.868 "/>
<g>
	<polygon id="sab11" fill="#00A651" stroke="#FFFFFF" stroke-miterlimit="10" points="759.579,195.393 745.532,179.492 
		768.771,158.934 779.956,171.625 781.202,175.596 781.551,175.982 	"/>
	<polygon id="sab10" fill="#00A651" stroke="#FFFFFF" stroke-miterlimit="10" points="745.532,179.491 731.465,163.576 
		754.732,142.999 768.771,158.936 	"/>
	<polygon id="sab9" fill="#00A651" stroke="#FFFFFF" stroke-miterlimit="10" points="731.465,163.576 717.396,147.673 
		740.689,127.069 754.732,142.998 	"/>
	<polygon id="sab8" fill="#00A651" stroke="#FFFFFF" stroke-miterlimit="10" points="717.396,147.672 703.329,131.762 
		726.656,111.145 740.689,127.069 	"/>
	<polygon id="sab7" fill="#00A651" stroke="#FFFFFF" stroke-miterlimit="10" points="703.329,131.762 689.258,115.847 
		712.602,95.207 726.656,111.144 	"/>
	<polygon id="sab6" fill="#00A651" stroke="#FFFFFF" stroke-miterlimit="10" points="689.258,115.847 675.191,99.946 
		705.135,86.741 712.602,95.208 	"/>
	<polygon id="sab13" fill="#00A651" stroke="#FFFFFF" stroke-miterlimit="10" points="787.965,227.491 773.659,211.308 
		795.584,191.911 803.081,200.4 	"/>
	<polygon id="sab12" fill="#00A651" stroke="#FFFFFF" stroke-miterlimit="10" points="773.659,211.308 759.579,195.393 
		781.551,175.982 795.584,191.91 	"/>
</g>
<polygon fill="#00A651" stroke="#FFFFFF" stroke-miterlimit="10" points="707.166,222.605 682.572,208.876 692.904,190.337 
	717.506,204.058 "/>
<polygon fill="#00A651" stroke="#FFFFFF" stroke-miterlimit="10" points="707.166,222.605 717.506,204.058 742.102,217.777 
	731.745,236.329 "/>
<polygon fill="#00A651" stroke="#FFFFFF" stroke-miterlimit="10" points="678.4,182.239 653.803,168.512 664.15,149.972 
	688.738,163.688 "/>
<polygon fill="#00A651" stroke="#FFFFFF" stroke-miterlimit="10" points="814.818,355.627 825.15,337.074 849.74,350.805 
	839.402,369.35 "/>
<polygon fill="#00A651" stroke="#FFFFFF" stroke-miterlimit="10" points="829.045,387.891 804.463,374.162 814.818,355.628 
	839.402,369.348 "/>
<polygon fill="#00A651" stroke="#FFFFFF" stroke-miterlimit="10" points="790.209,341.9 800.566,323.355 825.15,337.074 
	814.818,355.628 "/>
<polygon fill="#00A651" stroke="#FFFFFF" stroke-miterlimit="10" points="794.102,392.721 769.523,378.989 779.872,360.449 
	804.463,374.162 "/>
<polygon fill="#00A651" stroke="#FFFFFF" stroke-miterlimit="10" points="751.105,320.083 761.461,301.54 786.043,315.264 
	775.702,333.805 "/>
<polygon fill="#00A651" stroke="#FFFFFF" stroke-miterlimit="10" points="765.354,352.355 740.764,338.625 751.105,320.083 
	775.702,333.801 "/>
<polygon fill="#00A651" stroke="#FFFFFF" stroke-miterlimit="10" points="729.469,332.326 704.887,318.607 715.232,300.063 
	739.822,313.788 "/>
<polygon fill="#00A651" stroke="#FFFFFF" stroke-miterlimit="10" points="719.133,350.882 694.525,337.15 704.887,318.611 
	729.467,332.325 "/>
<polygon fill="#00A651" stroke="#FFFFFF" stroke-miterlimit="10" points="750.18,295.245 725.568,281.514 735.928,262.968 
	760.512,276.693 "/>
<g>
	<polygon id="sab15" fill="#00A651" stroke="#FFFFFF" stroke-miterlimit="10" points="818.618,262.157 804.553,246.249 
		826.443,226.897 840.475,242.823 	"/>
	<polygon id="sab16" fill="#00A651" stroke="#FFFFFF" stroke-miterlimit="10" points="832.686,278.064 818.618,262.158 
		840.475,242.823 854.531,258.752 	"/>
	<polygon id="sab14" fill="#00A651" stroke="#FFFFFF" stroke-miterlimit="10" points="804.553,246.248 797.041,237.752 
		812.148,210.677 826.443,226.897 	"/>
	<polygon id="sab18" fill="#00A651" stroke="#FFFFFF" stroke-miterlimit="10" points="860.823,309.881 846.756,293.979 
		868.573,274.687 882.627,290.619 	"/>
	<polygon id="sab17" fill="#00A651" stroke="#FFFFFF" stroke-miterlimit="10" points="846.756,293.979 832.686,278.064 
		854.531,258.753 868.573,274.688 	"/>
	<polygon id="sab19" fill="#00A651" stroke="#FFFFFF" stroke-miterlimit="10" points="874.549,325.422 860.823,309.881 
		882.627,290.619 896.684,306.555 	"/>
	<polygon id="sab20" fill="#00A651" stroke="#FFFFFF" stroke-miterlimit="10" points="883.051,335.02 874.549,325.42 
		896.684,306.555 906.842,318.096 907.488,329.068 	"/>
	<polygon id="sab21" fill="#00A651" stroke="#FFFFFF" stroke-miterlimit="10" points="888.551,355.535 883.736,335.802 
		883.051,335.02 907.488,329.07 908.561,347.419 908.327,350.716 	"/>
	<polygon id="sab22" fill="#00A651" stroke="#FFFFFF" stroke-miterlimit="10" points="895.027,382.23 888.551,355.534 
		908.327,350.716 906.258,379.502 	"/>
</g>
<g>
	<polygon id="sab5" fill="#00A651" stroke="#FFFFFF" stroke-miterlimit="10" points="660.875,83.762 684.016,63.31 693.157,73.16 
		700.012,80.932 670.061,94.13 	"/>
	<polygon id="sab4" fill="#00A651" stroke="#FFFFFF" stroke-miterlimit="10" points="660.875,83.762 646.818,67.848 669.551,47.755 
		684.016,63.31 	"/>
	<polygon id="sab3" fill="#00A651" stroke="#FFFFFF" stroke-miterlimit="10" points="646.818,67.848 632.754,51.947 655.072,32.192 
		669.551,47.756 	"/>
	<polygon id="sab2" fill="#00A651" stroke="#FFFFFF" stroke-miterlimit="10" points="632.754,51.946 618.686,36.031 640.62,16.636 
		655.072,32.195 	"/>
	<polygon id="sab1" fill="#00A651" stroke="#FFFFFF" stroke-miterlimit="10" points="618.686,36.031 608.18,24.161 626.07,1 
		640.62,16.636 	"/>
</g>
<g>
	<polygon id="centr5" fill="#00A651" stroke="#FFFFFF" stroke-miterlimit="10" points="598.16,210.346 622.698,224.181 
		633.119,205.688 608.595,191.848 	"/>
	<polygon id="centr6" fill="#00A651" stroke="#FFFFFF" stroke-miterlimit="10" points="587.829,228.967 612.418,242.7 
		622.777,224.145 598.172,210.429 	"/>
	<polygon id="centr4" fill="#00A651" stroke="#FFFFFF" stroke-miterlimit="10" points="608.518,191.882 633.107,205.606 
		643.461,187.064 618.866,173.34 	"/>
	<polygon id="centr8" fill="#00A651" stroke="#FFFFFF" stroke-miterlimit="10" points="602.068,261.238 577.473,247.521 
		567.127,266.063 591.732,279.788 	"/>
	<polygon id="centr7" fill="#00A651" stroke="#FFFFFF" stroke-miterlimit="10" points="602.068,261.238 612.418,242.698 
		587.829,228.969 577.473,247.521 	"/>
	<polygon id="centr3" fill="#00A651" stroke="#FFFFFF" stroke-miterlimit="10" points="618.854,173.255 643.383,187.1 
		653.814,168.599 629.291,154.767 	"/>
	<polygon id="centr2" fill="#00A651" stroke="#FFFFFF" stroke-miterlimit="10" points="629.213,154.801 653.803,168.515 
		664.15,149.971 639.566,136.246 	"/>
	<polygon id="centr1" fill="#00A651" stroke="#FFFFFF" stroke-miterlimit="10" points="664.15,149.971 673.625,133.01 
		653.844,110.647 639.566,136.245 	"/>
</g>
<polygon fill="#00A651" stroke="#FFFFFF" stroke-miterlimit="10" points="746.264,244.426 756.275,226.503 776.053,248.852 
	770.868,258.152 "/>
<polygon fill="#00A651" stroke="#FFFFFF" stroke-miterlimit="10" points="705.066,168.575 692.904,190.335 717.508,204.058 
	724.831,190.932 "/>
<polygon fill="#00A651" stroke="#FFFFFF" stroke-miterlimit="10" points="796.402,296.723 771.809,282.992 785.139,259.121 
	804.895,281.479 "/>
<polygon fill="#00A651" stroke="#FFFFFF" stroke-miterlimit="10" points="825.15,337.074 836.327,317.037 856.111,339.4 
	849.74,350.805 "/>
<polygon fill="#00A651" stroke="#FFFFFF" stroke-miterlimit="10" points="825.15,337.074 800.566,323.355 816.563,294.672 
	836.327,317.037 "/>
<polygon fill="#00A651" stroke="#FFFFFF" stroke-miterlimit="10" points="871.559,403.975 846.814,390.162 865.186,357.223 
	876.286,402.822 "/>
<polygon fill="#00A651" stroke="#FFFFFF" stroke-miterlimit="10" points="857.807,428.256 871.559,403.975 876.284,402.822 
	886.372,444.189 "/>
<polygon fill="#D6473C" stroke="#FFFFFF" stroke-miterlimit="10" points="639.323,962.936 624.281,939.116 642.229,927.754 
	657.26,951.57 "/>
<polygon fill="#D6473C" stroke="#FFFFFF" stroke-miterlimit="10" points="533.635,835.25 516.215,807.654 534.127,796.238 
	551.541,823.838 "/>
<polygon fill="#D6473C" stroke="#FFFFFF" stroke-miterlimit="10" points="476.217,867.111 458.956,839.759 440.995,851.083 
	458.271,878.464 "/>
<polygon fill="#D6473C" stroke="#FFFFFF" stroke-miterlimit="10" points="607.924,1155.4 592.898,1131.577 610.846,1120.248 
	625.891,1144.062 "/>
<polygon fill="#D6473C" stroke="#FFFFFF" stroke-miterlimit="10" points="461.368,1042.559 479.264,1031.089 494.295,1054.916 
	476.402,1066.366 "/>
<polygon fill="#D6473C" stroke="#FFFFFF" stroke-miterlimit="10" points="404.424,912.521 387.121,885.098 369.152,896.429 
	386.473,923.859 "/>
<polygon fill="#D6473C" stroke="#FFFFFF" stroke-miterlimit="10" points="494.295,1054.916 479.264,1031.089 497.139,1019.65 
	512.166,1043.459 "/>
<polygon fill="#D6473C" stroke="#FFFFFF" stroke-miterlimit="10" points="530.068,1032.022 515.029,1008.198 532.991,996.879 
	548.02,1020.686 "/>
<polygon fill="#D6473C" stroke="#FFFFFF" stroke-miterlimit="10" points="565.982,1009.354 550.954,985.529 568.906,974.208 
	583.941,998.016 "/>
<polygon fill="#D6473C" stroke="#FFFFFF" stroke-miterlimit="10" points="530.366,1151.875 515.348,1128.057 533.215,1116.607 
	548.247,1140.419 "/>
<polygon fill="#D6473C" stroke="#FFFFFF" stroke-miterlimit="10" points="548.247,1140.419 533.215,1116.607 551.104,1105.146 
	566.131,1128.973 "/>
<polygon fill="#D6473C" stroke="#FFFFFF" stroke-miterlimit="10" points="566.131,1128.973 551.104,1105.146 569.002,1093.709 
	584.025,1117.516 "/>
<polygon fill="#D6473C" stroke="#FFFFFF" stroke-miterlimit="10" points="601.991,1106.193 586.945,1082.378 604.913,1071.038 
	619.939,1094.85 "/>
<polygon fill="#D6473C" stroke="#FFFFFF" stroke-miterlimit="10" points="584.025,1117.516 569.002,1093.709 586.945,1082.378 
	601.991,1106.195 "/>
<polygon fill="#D6473C" stroke="#FFFFFF" stroke-miterlimit="10" points="619.941,1094.85 604.913,1071.038 622.879,1059.7 
	637.9,1083.522 "/>
<polygon fill="#D6473C" stroke="#FFFFFF" stroke-miterlimit="10" points="590.031,1166.838 575.002,1143.016 590.531,1133.063 
	592.898,1131.577 607.924,1155.4 "/>
<polygon fill="#D6473C" stroke="#FFFFFF" stroke-miterlimit="10" points="625.891,1144.062 610.846,1120.248 628.809,1108.909 
	643.84,1132.729 "/>
<polygon fill="#D6473C" stroke="#FFFFFF" stroke-miterlimit="10" points="621.379,974.309 606.354,950.486 624.281,939.116 
	639.322,962.936 "/>
<polygon fill="#D6473C" stroke="#FFFFFF" stroke-miterlimit="10" points="657.258,951.57 642.229,927.754 660.178,916.377 
	675.195,940.196 "/>
<polygon fill="#D6473C" stroke="#FFFFFF" stroke-miterlimit="10" points="843.977,957.811 855.706,932.205 837.768,923.991 
	836.389,923.359 824.668,948.979 "/>
<polygon fill="#D6473C" stroke="#FFFFFF" stroke-miterlimit="10" points="836.389,923.359 817.096,914.539 805.357,940.132 
	824.668,948.979 "/>
<polygon fill="#D6473C" stroke="#FFFFFF" stroke-miterlimit="10" points="797.782,905.701 786.043,931.313 805.357,940.132 
	817.096,914.539 "/>
<polygon fill="#D6473C" stroke="#FFFFFF" stroke-miterlimit="10" points="778.469,896.864 766.738,922.469 786.043,931.313 
	797.782,905.701 "/>
<polygon fill="#D6473C" stroke="#FFFFFF" stroke-miterlimit="10" points="766.738,922.469 778.469,896.864 759.154,888.039 
	747.424,913.624 "/>
<polygon fill="#D6473C" stroke="#FFFFFF" stroke-miterlimit="10" points="747.424,913.624 759.154,888.039 739.838,879.197 
	728.102,904.798 "/>
<polygon fill="#D6473C" stroke="#FFFFFF" stroke-miterlimit="10" points="728.102,904.798 739.838,879.197 720.525,870.35 
	708.805,895.957 "/>
<polygon fill="#D6473C" stroke="#FFFFFF" stroke-miterlimit="10" points="708.805,895.957 720.525,870.35 701.213,861.527 
	689.493,887.132 "/>
<polygon fill="#D6473C" stroke="#FFFFFF" stroke-miterlimit="10" points="432.395,996.638 450.344,985.289 470.396,1017.047 
	452.502,1028.5 "/>
<polygon fill="#D6473C" stroke="#FFFFFF" stroke-miterlimit="10" points="476.217,867.111 458.956,839.759 476.579,828.641 
	477.059,828.648 494.17,855.758 "/>
<polygon fill="#D6473C" stroke="#FFFFFF" stroke-miterlimit="10" points="458.271,878.464 440.995,851.083 423.031,862.428 
	440.32,889.818 "/>
<polygon fill="#D6473C" stroke="#FFFFFF" stroke-miterlimit="10" points="423.031,862.428 405.086,873.755 422.375,901.16 
	440.32,889.818 "/>
<polygon fill="#D6473C" stroke="#FFFFFF" stroke-miterlimit="10" points="422.375,901.16 405.086,873.755 387.121,885.1 
	404.424,912.521 "/>
<polygon fill="#00A651" stroke="#FFFFFF" stroke-miterlimit="10" points="618.471,1009.49 603.447,985.666 621.379,974.309 
	636.409,998.116 "/>
<polygon fill="#00A651" stroke="#FFFFFF" stroke-miterlimit="10" points="450.344,985.289 470.396,1017.047 488.264,1005.583 
	468.301,973.929 "/>
<polygon fill="#00A651" stroke="#FFFFFF" stroke-miterlimit="10" points="506.168,994.15 486.243,962.577 504.189,951.238 
	524.125,982.821 "/>
<polygon fill="#00A651" stroke="#FFFFFF" stroke-miterlimit="10" points="579.564,947.816 559.605,916.208 577.508,904.771 
	597.495,936.441 "/>
<polygon fill="#00A651" stroke="#FFFFFF" stroke-miterlimit="10" points="680.95,883.234 678.648,851.206 701.213,861.527 
	689.493,887.132 "/>
<polygon fill="#00A651" stroke="#FFFFFF" stroke-miterlimit="10" points="450.344,985.289 468.301,973.929 448.49,942.543 
	430.584,953.962 "/>
<polygon fill="#00A651" stroke="#FFFFFF" stroke-miterlimit="10" points="504.189,951.238 522.148,939.878 502.229,908.337 
	484.307,919.741 "/>
<polygon fill="#00A651" stroke="#FFFFFF" stroke-miterlimit="10" points="566.57,847.667 551.541,823.838 569.463,812.439 
	584.493,836.246 "/>
<polygon fill="#00A651" stroke="#FFFFFF" stroke-miterlimit="10" points="584.493,836.246 569.463,812.439 579.691,805.921 
	607.531,818.653 605.531,822.852 "/>
<polygon fill="#00A651" stroke="#FFFFFF" stroke-miterlimit="10" points="403.793,951.32 386.475,923.859 404.424,912.521 
	421.711,939.913 "/>
<polygon fill="#00A651" stroke="#FFFFFF" stroke-miterlimit="10" points="439.618,928.495 422.375,901.16 440.32,889.818 
	457.534,917.09 "/>
<polygon fill="#00A651" stroke="#FFFFFF" stroke-miterlimit="10" points="457.534,917.09 440.32,889.818 458.271,878.464 
	475.439,905.686 "/>
<polygon fill="#00A651" stroke="#FFFFFF" stroke-miterlimit="10" points="475.439,905.686 458.271,878.464 476.217,867.111 
	493.363,894.277 "/>
<polygon fill="#00A651" stroke="#FFFFFF" stroke-miterlimit="10" points="675.15,940.132 660.129,916.311 678.057,904.943 
	684.622,934.162 "/>
<polygon fill="#00A651" stroke="#FFFFFF" stroke-miterlimit="10" points="360.295,882.37 449.023,826.373 388.898,825.934 
	342.975,854.938 "/>
<polygon fill="#D6473C" stroke="#FFFFFF" stroke-miterlimit="10" points="542.092,971.475 522.148,939.878 540.098,928.523 
	560.043,960.146 "/>
<polygon fill="#00A651" stroke="#FFFFFF" stroke-miterlimit="10" points="512.166,1043.459 497.139,1019.65 515.029,1008.198 
	530.068,1032.022 "/>
<polygon fill="#00A651" stroke="#FFFFFF" stroke-miterlimit="10" points="491.432,1090.188 476.402,1066.366 494.295,1054.916 
	509.313,1078.729 "/>
<polygon fill="#00A651" stroke="#FFFFFF" stroke-miterlimit="10" points="509.313,1078.729 494.295,1054.916 512.166,1043.459 
	527.197,1067.281 "/>
<polygon fill="#00A651" stroke="#FFFFFF" stroke-miterlimit="10" points="527.197,1067.281 512.166,1043.459 530.068,1032.022 
	545.098,1055.833 "/>
<polygon fill="#00A651" stroke="#FFFFFF" stroke-miterlimit="10" points="545.098,1055.833 530.068,1032.022 547.956,1020.583 
	563.049,1044.504 "/>
<polygon fill="#00A651" stroke="#FFFFFF" stroke-miterlimit="10" points="563.049,1044.504 548.02,1020.686 565.982,1009.354 
	581.014,1033.165 "/>
<polygon fill="#00A651" stroke="#FFFFFF" stroke-miterlimit="10" points="581.014,1033.165 565.982,1009.354 583.941,998.016 
	598.977,1021.834 "/>
<polygon fill="#00A651" stroke="#FFFFFF" stroke-miterlimit="10" points="533.215,1116.607 518.191,1092.782 536.066,1081.336 
	551.104,1105.146 "/>
<polygon fill="#00A651" stroke="#FFFFFF" stroke-miterlimit="10" points="551.104,1105.146 536.066,1081.336 553.973,1069.891 
	569.002,1093.709 "/>
<polygon fill="#00A651" stroke="#FFFFFF" stroke-miterlimit="10" points="569.002,1093.709 553.973,1069.891 571.916,1058.553 
	586.945,1082.378 "/>
<polygon fill="#00A651" stroke="#FFFFFF" stroke-miterlimit="10" points="586.945,1082.378 571.916,1058.553 589.881,1047.213 
	604.913,1071.038 "/>
<polygon fill="#00A651" stroke="#FFFFFF" stroke-miterlimit="10" points="643.84,1132.729 628.809,1108.909 646.779,1097.582 
	661.803,1121.393 "/>
<polygon fill="#00A651" stroke="#FFFFFF" stroke-miterlimit="10" points="601.611,1192.859 572.971,1177.762 590.031,1166.838 
	605.075,1190.663 "/>
<polygon fill="#00A651" stroke="#FFFFFF" stroke-miterlimit="10" points="605.075,1190.663 590.031,1166.838 607.924,1155.4 
	623.016,1179.3 "/>
<polygon fill="#00A651" stroke="#FFFFFF" stroke-miterlimit="10" points="623.016,1179.3 607.924,1155.4 625.891,1144.062 
	640.943,1167.946 "/>
<polygon fill="#00A651" stroke="#FFFFFF" stroke-miterlimit="10" points="640.943,1167.946 625.891,1144.062 643.84,1132.729 
	658.889,1156.572 "/>
<polygon fill="#00A651" stroke="#FFFFFF" stroke-miterlimit="10" points="658.891,1156.572 643.84,1132.729 661.801,1121.393 
	676.838,1145.208 "/>
<polygon fill="#00A651" stroke="#FFFFFF" stroke-miterlimit="10" points="603.447,985.666 588.416,961.857 606.352,950.486 
	621.379,974.309 "/>
<polygon fill="#00A651" stroke="#FFFFFF" stroke-miterlimit="10" points="636.409,998.116 621.379,974.309 639.322,962.936 
	654.359,986.751 "/>
<polygon fill="#00A651" stroke="#FFFFFF" stroke-miterlimit="10" points="654.359,986.751 639.323,962.936 657.258,951.57 
	672.288,975.377 "/>
<polygon fill="#00A651" stroke="#FFFFFF" stroke-miterlimit="10" points="672.288,975.377 657.258,951.57 675.15,940.132 
	686.861,966.141 "/>
<polygon fill="#00A651" stroke="#FFFFFF" stroke-miterlimit="10" points="488.264,1005.583 468.301,973.929 486.243,962.577 
	506.168,994.15 "/>
<polygon fill="#00A651" stroke="#FFFFFF" stroke-miterlimit="10" points="524.125,982.821 504.189,951.238 522.148,939.878 
	542.092,971.475 "/>
<polygon fill="#00A651" stroke="#FFFFFF" stroke-miterlimit="10" points="597.495,936.441 577.508,904.771 595.413,893.35 
	615.434,925.079 "/>
<polygon fill="#00A651" stroke="#FFFFFF" stroke-miterlimit="10" points="615.434,925.079 595.413,893.35 613.316,881.932 
	633.368,913.705 "/>
<polygon fill="#00A651" stroke="#FFFFFF" stroke-miterlimit="10" points="633.368,913.705 613.316,881.932 631.229,870.503 
	651.299,902.33 "/>
<polygon fill="#00A651" stroke="#FFFFFF" stroke-miterlimit="10" points="651.299,902.33 631.229,870.503 649.127,859.086 
	669.161,890.83 "/>
<polygon fill="#00A651" stroke="#FFFFFF" stroke-miterlimit="10" points="680.95,883.234 678.648,851.206 668.65,846.631 
	649.127,859.086 669.161,890.831 "/>
<polygon fill="#00A651" stroke="#FFFFFF" stroke-miterlimit="10" points="684.622,934.162 713.695,947.441 701.977,973.054 
	686.861,966.141 675.15,940.132 "/>
<polygon fill="#00A651" stroke="#FFFFFF" stroke-miterlimit="10" points="530.745,870.47 515.719,846.662 533.635,835.252 
	548.666,859.079 "/>
<polygon fill="#00A651" stroke="#FFFFFF" stroke-miterlimit="10" points="432.406,996.638 412.662,965.359 430.584,953.962 
	450.344,985.289 "/>
<polygon fill="#00A651" stroke="#FFFFFF" stroke-miterlimit="10" points="468.301,973.929 486.243,962.577 466.404,931.141 
	448.49,942.543 "/>
<polygon fill="#00A651" stroke="#FFFFFF" stroke-miterlimit="10" points="486.243,962.577 504.189,951.238 484.307,919.741 
	466.404,931.141 "/>
<polygon fill="#00A651" stroke="#FFFFFF" stroke-miterlimit="10" points="522.148,939.878 540.098,928.523 520.154,896.932 
	502.229,908.337 "/>
<polygon fill="#00A651" stroke="#FFFFFF" stroke-miterlimit="10" points="559.605,916.208 539.616,884.528 557.534,873.124 
	577.508,904.771 "/>
<polygon fill="#00A651" stroke="#FFFFFF" stroke-miterlimit="10" points="577.508,904.771 557.534,873.124 575.439,861.729 
	595.413,893.35 "/>
<polygon fill="#00A651" stroke="#FFFFFF" stroke-miterlimit="10" points="595.413,893.35 575.439,861.729 593.361,850.302 
	613.316,881.932 "/>
<polygon fill="#00A651" stroke="#FFFFFF" stroke-miterlimit="10" points="613.316,881.932 593.361,850.302 611.282,838.896 
	631.229,870.503 "/>
<polygon fill="#00A651" stroke="#FFFFFF" stroke-miterlimit="10" points="631.229,870.503 611.282,838.896 618.471,834.324 
	622.657,825.58 668.65,846.631 "/>
<polygon fill="#00A651" stroke="#FFFFFF" stroke-miterlimit="10" points="515.719,846.662 498.311,819.064 516.215,807.654 
	533.635,835.252 "/>
<polygon fill="#00A651" stroke="#FFFFFF" stroke-miterlimit="10" points="548.666,859.079 533.635,835.25 551.541,823.838 
	566.57,847.667 "/>
<polygon fill="#00A651" stroke="#FFFFFF" stroke-miterlimit="10" points="421.711,939.911 404.424,912.521 422.375,901.16 
	439.618,928.495 "/>
<polygon fill="#00A651" stroke="#FFFFFF" stroke-miterlimit="10" points="493.363,894.277 476.217,867.111 494.17,855.758 
	511.286,882.859 "/>
<polygon fill="#00A651" stroke="#FFFFFF" stroke-miterlimit="10" points="713.695,947.441 694.383,938.609 706.094,912.994 
	725.406,921.835 "/>
<polygon fill="#00A651" stroke="#FFFFFF" stroke-miterlimit="10" points="678.059,904.943 682.316,902.114 706.094,912.994 
	694.383,938.609 684.622,934.16 "/>
<polygon fill="#D6473C" stroke="#FFFFFF" stroke-miterlimit="10" points="780.889,1172.723 807.334,1163.034 814.635,1182.984 
	788.186,1192.665 "/>
<polygon fill="#D6473C" stroke="#FFFFFF" stroke-miterlimit="10" points="794.952,1064.853 777.025,1056.627 775.643,1056.021 
	763.911,1081.604 765.291,1082.236 783.236,1090.446 "/>
<polygon fill="#D6473C" stroke="#FFFFFF" stroke-miterlimit="10" points="725.305,1063.937 705.991,1055.098 717.711,1029.506 
	737.023,1038.328 "/>
<polygon fill="#D6473C" stroke="#FFFFFF" stroke-miterlimit="10" points="810.081,1252.488 802.784,1232.544 829.223,1222.872 
	836.523,1242.83 "/>
<polygon fill="#D6473C" stroke="#FFFFFF" stroke-miterlimit="10" points="657.406,1071.17 642.368,1047.357 660.313,1036.002 
	675.35,1059.807 "/>
<polygon fill="#D6473C" stroke="#FFFFFF" stroke-miterlimit="10" points="675.35,1059.807 660.313,1036.002 678.26,1024.625 
	692.488,1048.92 "/>
<polygon fill="#D6473C" stroke="#FFFFFF" stroke-miterlimit="10" points="763.911,1081.604 744.618,1072.779 756.338,1047.172 
	775.643,1056.021 "/>
<polygon fill="#D6473C" stroke="#FFFFFF" stroke-miterlimit="10" points="744.618,1072.779 725.305,1063.937 737.023,1038.328 
	756.338,1047.172 "/>
<polygon fill="#D6473C" stroke="#FFFFFF" stroke-miterlimit="10" points="779.698,1138.085 801.941,1148.283 807.336,1163.034 
	780.889,1172.723 779.52,1168.992 767.979,1163.695 "/>
<polygon fill="#D6473C" stroke="#FFFFFF" stroke-miterlimit="10" points="795.486,1212.603 788.186,1192.665 814.635,1182.984 
	821.938,1202.923 "/>
<polygon fill="#D6473C" stroke="#FFFFFF" stroke-miterlimit="10" points="802.784,1232.544 795.486,1212.603 821.938,1202.923 
	829.223,1222.872 "/>
<polygon fill="#00A651" stroke="#FFFFFF" stroke-miterlimit="10" points="660.313,1036.002 645.277,1012.176 663.219,1000.798 
	678.26,1024.625 "/>
<polygon fill="#00A651" stroke="#FFFFFF" stroke-miterlimit="10" points="755.676,997.618 736.365,988.785 748.096,963.179 
	767.409,972.011 "/>
<polygon fill="#00A651" stroke="#FFFFFF" stroke-miterlimit="10" points="767.409,972.011 748.096,963.179 759.813,937.582 
	779.127,946.409 "/>
<polygon fill="#00A651" stroke="#FFFFFF" stroke-miterlimit="10" points="756.338,1047.172 737.023,1038.328 748.758,1012.727 
	768.068,1021.57 "/>
<polygon fill="#00A651" stroke="#FFFFFF" stroke-miterlimit="10" points="717.711,1029.506 698.407,1020.668 710.129,995.063 
	729.439,1003.904 "/>
<polygon fill="#00A651" stroke="#FFFFFF" stroke-miterlimit="10" points="745.277,1122.33 725.963,1113.492 737.697,1087.881 
	757.008,1096.723 "/>
<polygon fill="#00A651" stroke="#FFFFFF" stroke-miterlimit="10" points="695.948,1099.766 706.652,1104.65 718.383,1079.055 
	698.262,1069.846 "/>
<polygon fill="#00A651" stroke="#FFFFFF" stroke-miterlimit="10" points="871.286,1207.496 863.982,1187.527 890.432,1177.876 
	897.732,1197.818 "/>
<polygon fill="#00A651" stroke="#FFFFFF" stroke-miterlimit="10" points="813.659,1122.679 801.941,1148.283 807.336,1163.034 
	833.791,1153.382 824.35,1127.563 "/>
<polygon fill="#00A651" stroke="#FFFFFF" stroke-miterlimit="10" points="642.368,1047.357 627.346,1023.553 645.277,1012.176 
	660.313,1036.002 "/>
<polygon fill="#00A651" stroke="#FFFFFF" stroke-miterlimit="10" points="678.26,1024.625 663.221,1000.798 681.166,989.447 
	690.313,1016.961 "/>
<polygon fill="#00A651" stroke="#FFFFFF" stroke-miterlimit="10" points="856.7,1167.596 849.402,1147.652 875.84,1137.987 
	883.137,1157.934 "/>
<polygon fill="#00A651" stroke="#FFFFFF" stroke-miterlimit="10" points="849.402,1147.652 842.102,1127.708 868.543,1118.049 
	875.842,1137.987 "/>
<polygon fill="#00A651" stroke="#FFFFFF" stroke-miterlimit="10" points="875.84,1137.987 868.543,1118.049 894.99,1108.369 
	902.284,1128.313 "/>
<polygon fill="#00A651" stroke="#FFFFFF" stroke-miterlimit="10" points="817.745,964.091 837.049,972.927 825.336,998.544 
	807.4,990.311 806.012,989.677 "/>
<polygon fill="#00A651" stroke="#FFFFFF" stroke-miterlimit="10" points="806.012,989.677 807.402,990.311 825.336,998.544 
	813.602,1024.131 795.666,1015.917 794.305,1015.288 "/>
<polygon fill="#00A651" stroke="#FFFFFF" stroke-miterlimit="10" points="814.635,1182.984 807.338,1163.034 833.791,1153.382 
	841.075,1173.323 "/>
<polygon fill="#00A651" stroke="#FFFFFF" stroke-miterlimit="10" points="794.305,1015.288 774.988,1006.461 786.7,980.854 
	806.012,989.677 "/>
<polygon fill="#00A651" stroke="#FFFFFF" stroke-miterlimit="10" points="786.7,980.854 798.43,955.251 817.745,964.091 
	806.012,989.677 "/>
<polygon fill="#00A651" stroke="#FFFFFF" stroke-miterlimit="10" points="767.409,972.011 779.127,946.409 798.43,955.251 
	786.7,980.854 "/>
<polygon fill="#00A651" stroke="#FFFFFF" stroke-miterlimit="10" points="767.409,972.011 786.7,980.854 774.988,1006.461 
	755.676,997.618 "/>
<polygon fill="#00A651" stroke="#FFFFFF" stroke-miterlimit="10" points="736.365,988.785 717.053,979.962 728.777,954.35 
	748.096,963.179 "/>
<polygon fill="#00A651" stroke="#FFFFFF" stroke-miterlimit="10" points="748.096,963.179 728.777,954.35 740.502,928.748 
	759.813,937.582 "/>
<polygon fill="#00A651" stroke="#FFFFFF" stroke-miterlimit="10" points="806.68,1039.243 788.738,1031.038 787.383,1030.404 
	775.643,1056.021 777.025,1056.627 794.952,1064.853 "/>
<polygon fill="#00A651" stroke="#FFFFFF" stroke-miterlimit="10" points="775.643,1056.021 756.338,1047.172 768.068,1021.57 
	787.383,1030.404 "/>
<polygon fill="#00A651" stroke="#FFFFFF" stroke-miterlimit="10" points="737.023,1038.328 717.711,1029.506 729.439,1003.904 
	748.758,1012.727 "/>
<polygon fill="#00A651" stroke="#FFFFFF" stroke-miterlimit="10" points="733.541,1147.919 714.232,1139.098 725.963,1113.492 
	745.277,1122.33 "/>
<polygon fill="#00A651" stroke="#FFFFFF" stroke-miterlimit="10" points="718.383,1079.055 706.652,1104.65 725.963,1113.492 
	737.697,1087.881 "/>
<polygon fill="#00A651" stroke="#FFFFFF" stroke-miterlimit="10" points="666.268,1085.229 681.281,1109.029 695.948,1099.766 
	698.262,1069.846 693.779,1067.807 "/>
<polygon fill="#00A651" stroke="#FFFFFF" stroke-miterlimit="10" points="698.12,1131.723 706.652,1104.65 695.948,1099.766 
	681.281,1109.029 694.605,1130.119 "/>
<polygon fill="#00A651" stroke="#FFFFFF" stroke-miterlimit="10" points="698.12,1131.723 714.232,1139.098 725.963,1113.492 
	706.652,1104.65 "/>
<polygon fill="#00A651" stroke="#FFFFFF" stroke-miterlimit="10" points="829.375,1080.618 810.064,1071.772 821.795,1046.17 
	841.092,1055.011 "/>
<polygon fill="#00A651" stroke="#FFFFFF" stroke-miterlimit="10" points="829.375,1080.618 810.064,1071.772 798.352,1097.37 
	817.645,1106.219 "/>
<polygon fill="#00A651" stroke="#FFFFFF" stroke-miterlimit="10" points="829.375,1080.618 841.092,1055.011 860.407,1063.854 
	848.674,1089.461 "/>
<polygon fill="#00A651" stroke="#FFFFFF" stroke-miterlimit="10" points="860.407,1063.854 882.385,1073.921 887.691,1088.427 
	861.254,1098.086 859.971,1094.626 848.674,1089.461 "/>
<polygon fill="#00A651" stroke="#FFFFFF" stroke-miterlimit="10" points="690.313,1016.961 681.168,989.445 688.152,985.011 
	710.129,995.063 698.407,1020.668 "/>
<polygon fill="#00A651" stroke="#FFFFFF" stroke-miterlimit="10" points="692.488,1048.92 678.26,1024.625 690.313,1016.961 
	717.711,1029.506 705.991,1055.098 "/>
<rect x="889.36" y="1149.042" transform="matrix(-0.3435 -0.9392 0.9392 -0.3435 116.7634 2407.8701)" fill="#00A651" stroke="#FFFFFF" stroke-miterlimit="10" width="21.234" height="28.165"/>
<polygon fill="#00A651" stroke="#FFFFFF" stroke-miterlimit="10" points="897.736,1197.818 890.432,1177.876 916.883,1168.199 
	924.172,1188.128 "/>
<polygon fill="#00A651" stroke="#FFFFFF" stroke-miterlimit="10" points="905.023,1217.768 897.732,1197.818 924.172,1188.128 
	931.471,1208.077 "/>
<polygon fill="#00A651" stroke="#FFFFFF" stroke-miterlimit="10" points="791.43,1112.487 779.698,1138.085 801.943,1148.283 
	813.659,1122.679 "/>
<polygon fill="#00A651" stroke="#FFFFFF" stroke-miterlimit="10" points="821.938,1202.923 814.635,1182.984 841.073,1173.323 
	848.37,1193.252 "/>
<polygon fill="#00A651" stroke="#FFFFFF" stroke-miterlimit="10" points="829.223,1222.872 821.938,1202.923 848.37,1193.252 
	855.672,1213.201 "/>
<polygon fill="#00A651" stroke="#FFFFFF" stroke-miterlimit="10" points="836.523,1242.83 829.223,1222.872 855.672,1213.201 
	862.973,1233.139 "/>
<polygon fill="#00A651" stroke="#FFFFFF" stroke-miterlimit="10" points="848.674,1089.461 829.375,1080.618 817.645,1106.219 
	837.575,1115.332 "/>
<polygon fill="#00A651" stroke="#FFFFFF" stroke-miterlimit="10" points="842.102,1127.708 837.575,1115.332 848.674,1089.461 
	859.971,1094.626 868.543,1118.049 "/>
<polygon fill="#00A651" stroke="#FFFFFF" stroke-miterlimit="10" points="764.586,1131.167 745.277,1122.33 757.008,1096.723 
	776.309,1105.562 "/>
<polygon fill="#D6473C" stroke="#FFFFFF" stroke-miterlimit="10" points="919.068,683.877 948.469,673.12 948.428,676.116 
	955.711,693.083 926.361,703.813 "/>
<polygon fill="#D6473C" stroke="#FFFFFF" stroke-miterlimit="10" points="933.663,723.757 926.363,703.813 955.711,693.083 
	964.073,712.632 "/>
<polygon fill="#D6473C" stroke="#FFFFFF" stroke-miterlimit="10" points="993.17,1117.473 985.868,1097.532 1012.313,1087.854 
	1019.611,1107.801 "/>
<polygon fill="#D6473C" stroke="#FFFFFF" stroke-miterlimit="10" points="897.168,982.418 908.898,956.822 928.198,965.663 
	916.479,991.273 "/>
<polygon fill="#D6473C" stroke="#FFFFFF" stroke-miterlimit="10" points="887.209,902.191 898.92,876.592 918.229,885.424 
	906.111,910.857 "/>
<polygon fill="#D6473C" stroke="#FFFFFF" stroke-miterlimit="10" points="906.111,910.857 918.229,885.424 937.545,894.277 
	925.426,919.713 "/>
<polygon fill="#D6473C" stroke="#FFFFFF" stroke-miterlimit="10" points="944.741,928.544 956.855,903.12 976.161,911.968 
	964.036,937.393 "/>
<polygon fill="#D6473C" stroke="#FFFFFF" stroke-miterlimit="10" points="925.426,919.713 937.545,894.277 956.855,903.12 
	944.741,928.544 "/>
<polygon fill="#D6473C" stroke="#FFFFFF" stroke-miterlimit="10" points="916.206,578.244 916.198,557.004 950.301,556.993 
	949.967,578.234 "/>
<polygon fill="#D6473C" stroke="#FFFFFF" stroke-miterlimit="10" points="916.206,599.484 916.206,578.243 949.967,578.234 
	949.635,599.096 949.357,599.473 "/>
<polygon fill="#D6473C" stroke="#FFFFFF" stroke-miterlimit="10" points="940.963,743.706 933.663,723.757 964.073,712.632 
	972.467,732.182 "/>
<polygon fill="#D6473C" stroke="#FFFFFF" stroke-miterlimit="10" points="970.146,823.479 962.854,803.541 995.043,791.758 
	1002.443,811.672 "/>
<polygon fill="#D6473C" stroke="#FFFFFF" stroke-miterlimit="10" points="962.854,803.541 955.559,783.593 987.639,771.857 
	995.043,791.759 "/>
<polygon fill="#D6473C" stroke="#FFFFFF" stroke-miterlimit="10" points="985.868,1097.532 978.57,1077.587 1005.01,1067.913 
	1012.314,1087.854 "/>
<polygon fill="#D6473C" stroke="#FFFFFF" stroke-miterlimit="10" points="978.57,1077.587 971.277,1057.646 997.721,1047.963 
	1005.01,1067.913 "/>
<polygon fill="#D6473C" stroke="#FFFFFF" stroke-miterlimit="10" points="870.282,939.129 858.555,964.729 877.866,973.578 
	889.588,947.973 "/>
<polygon fill="#D6473C" stroke="#FFFFFF" stroke-miterlimit="10" points="877.866,973.578 889.588,947.973 908.898,956.822 
	897.168,982.418 "/>
<polygon fill="#D6473C" stroke="#FFFFFF" stroke-miterlimit="10" points="916.479,991.273 928.198,965.663 947.51,974.501 
	935.779,1000.109 "/>
<polygon fill="#D6473C" stroke="#FFFFFF" stroke-miterlimit="10" points="956.663,1017.762 983.125,1008.078 990.426,1028.025 
	963.961,1037.699 "/>
<polygon fill="#D6473C" stroke="#FFFFFF" stroke-miterlimit="10" points="1000.456,1137.42 993.17,1117.473 1019.611,1107.801 
	1026.906,1127.744 "/>
<polygon fill="#D6473C" stroke="#FFFFFF" stroke-miterlimit="10" points="1007.76,1157.363 1000.456,1137.42 1026.906,1127.744 
	1034.2,1147.684 "/>
<polygon fill="#D6473C" stroke="#FFFFFF" stroke-miterlimit="10" points="1015.059,1177.304 1007.76,1157.363 1034.2,1147.684 
	1041.502,1167.63 "/>
<polygon fill="#00A651" stroke="#FFFFFF" stroke-miterlimit="10" points="916.18,472.056 952.682,472.048 951.963,493.29 
	916.198,493.293 "/>
<polygon fill="#00A651" stroke="#FFFFFF" stroke-miterlimit="10" points="916.198,514.534 951.234,514.521 950.734,529.76 
	950.641,535.757 916.198,535.762 "/>
<polygon fill="#00A651" stroke="#FFFFFF" stroke-miterlimit="10" points="1013.936,943.163 1006.637,923.219 1039.736,911.091 
	1047.236,930.962 "/>
<polygon fill="#00A651" stroke="#FFFFFF" stroke-miterlimit="10" points="943.813,1112.92 936.508,1092.979 962.963,1083.3 
	970.252,1103.249 "/>
<rect x="935.441" y="1064.145" transform="matrix(-0.3435 -0.9392 0.9392 -0.3435 258.3864 2337.0776)" fill="#00A651" stroke="#FFFFFF" stroke-miterlimit="10" width="21.235" height="28.163"/>
<polygon fill="#00A651" stroke="#FFFFFF" stroke-miterlimit="10" points="929.213,1073.035 921.918,1053.093 948.363,1043.416 
	955.663,1063.354 "/>
<polygon fill="#00A651" stroke="#FFFFFF" stroke-miterlimit="10" points="851.635,979.85 870.945,988.689 859.213,1014.298 
	839.9,1005.448 "/>
<polygon fill="#00A651" stroke="#FFFFFF" stroke-miterlimit="10" points="935.779,1000.109 947.51,974.501 982.598,990.566 
	944.991,1004.316 "/>
<polygon fill="#00A651" stroke="#FFFFFF" stroke-miterlimit="10" points="983.125,1008.078 990.426,1028.025 1016.861,1018.342 
	1011.541,1003.838 1004.077,1000.411 "/>
<polygon fill="#00A651" stroke="#FFFFFF" stroke-miterlimit="10" points="1060.426,1070.244 1095.127,1057.542 1102.525,1077.454 
	1067.738,1090.188 "/>
<polygon fill="#00A651" stroke="#FFFFFF" stroke-miterlimit="10" points="934.143,867.323 945.92,842.037 951.586,839.949 
	967.137,882.445 "/>
<rect x="930.931" y="1133.637" transform="matrix(-0.3437 -0.9391 0.9391 -0.3437 187.3755 2426.3872)" fill="#00A651" stroke="#FFFFFF" stroke-miterlimit="10" width="21.238" height="28.162"/>
<polygon fill="#00A651" stroke="#FFFFFF" stroke-miterlimit="10" points="973,1192.696 965.7,1172.754 992.146,1163.077 
	999.439,1183.004 "/>
<polygon fill="#00A651" stroke="#FFFFFF" stroke-miterlimit="10" points="1026.906,1127.744 1019.611,1107.801 1046.053,1098.123 
	1053.35,1118.066 "/>
<polygon fill="#00A651" stroke="#FFFFFF" stroke-miterlimit="10" points="964.036,937.393 976.161,911.968 978.299,912.939 
	991.909,950.157 "/>
<polygon fill="#00A651" stroke="#FFFFFF" stroke-miterlimit="10" points="916.198,493.292 951.963,493.289 951.234,514.523 
	916.198,514.535 "/>
<polygon fill="#00A651" stroke="#FFFFFF" stroke-miterlimit="10" points="916.198,557.005 916.198,535.762 950.641,535.755 
	950.301,556.993 "/>
<polygon fill="#00A651" stroke="#FFFFFF" stroke-miterlimit="10" points="948.264,763.653 940.963,743.706 972.467,732.182 
	975.666,739.626 980.238,751.952 "/>
<polygon fill="#00A651" stroke="#FFFFFF" stroke-miterlimit="10" points="955.559,783.593 948.264,763.653 980.238,751.952 
	987.639,771.857 "/>
<polygon fill="#00A651" stroke="#FFFFFF" stroke-miterlimit="10" points="977.447,843.425 970.146,823.479 1002.443,811.672 
	1009.838,831.575 "/>
<polygon fill="#00A651" stroke="#FFFFFF" stroke-miterlimit="10" points="984.747,863.373 977.447,843.425 1009.838,831.575 
	1017.238,851.496 "/>
<polygon fill="#00A651" stroke="#FFFFFF" stroke-miterlimit="10" points="992.038,883.311 984.747,863.373 1017.238,851.499 
	1024.7,871.378 "/>
<polygon fill="#00A651" stroke="#FFFFFF" stroke-miterlimit="10" points="999.336,903.254 992.038,883.311 1024.7,871.378 
	1032.211,891.243 "/>
<polygon fill="#00A651" stroke="#FFFFFF" stroke-miterlimit="10" points="1006.637,923.219 999.336,903.254 1032.211,891.243 
	1039.736,911.094 "/>
<polygon fill="#00A651" stroke="#FFFFFF" stroke-miterlimit="10" points="1021.438,963.667 1013.936,943.163 1047.236,930.962 
	1067.613,984.832 "/>
<polygon fill="#00A651" stroke="#FFFFFF" stroke-miterlimit="10" points="916.217,636.112 949.055,636.104 948.471,673.12 
	919.068,683.877 916.217,676.123 "/>
<polygon fill="#00A651" stroke="#FFFFFF" stroke-miterlimit="10" points="904.74,424.249 909.92,445.541 953.943,434.832 
	954.875,406.744 947.273,401.193 940.354,401.193 "/>
<polygon fill="#00A651" stroke="#FFFFFF" stroke-miterlimit="10" points="909.92,445.541 953.943,434.833 952.682,472.048 
	916.18,472.057 916.18,471.278 "/>
<polygon fill="#00A651" stroke="#FFFFFF" stroke-miterlimit="10" points="1019.611,1107.801 1012.313,1087.854 1038.762,1078.177 
	1046.053,1098.123 "/>
<polygon fill="#00A651" stroke="#FFFFFF" stroke-miterlimit="10" points="1012.313,1087.854 1005.01,1067.913 1031.463,1058.234 
	1038.762,1078.177 "/>
<polygon fill="#00A651" stroke="#FFFFFF" stroke-miterlimit="10" points="997.721,1047.963 990.426,1028.025 1016.861,1018.342 
	1024.161,1038.291 "/>
<polygon fill="#00A651" stroke="#FFFFFF" stroke-miterlimit="10" points="924.659,1142.542 917.365,1122.598 943.813,1112.92 
	951.104,1132.864 "/>
<polygon fill="#00A651" stroke="#FFFFFF" stroke-miterlimit="10" points="951.104,1132.864 943.811,1112.92 970.252,1103.249 
	977.555,1123.187 "/>
<rect x="916.297" y="1093.729" transform="matrix(-0.3437 -0.9391 0.9391 -0.3437 205.1748 2359.0081)" fill="#00A651" stroke="#FFFFFF" stroke-miterlimit="10" width="21.236" height="28.159"/>
<polygon fill="#00A651" stroke="#FFFFFF" stroke-miterlimit="10" points="910.066,1102.657 902.768,1082.695 929.213,1073.035 
	936.508,1092.979 "/>
<polygon fill="#00A651" stroke="#FFFFFF" stroke-miterlimit="10" points="902.768,1082.695 895.477,1062.754 921.92,1053.093 
	929.213,1073.035 "/>
<polygon fill="#00A651" stroke="#FFFFFF" stroke-miterlimit="10" points="828.193,1031.052 839.9,1005.448 859.213,1014.298 
	847.479,1039.893 "/>
<polygon fill="#00A651" stroke="#FFFFFF" stroke-miterlimit="10" points="859.213,1014.298 870.945,988.689 890.241,997.536 
	878.523,1023.143 "/>
<polygon fill="#00A651" stroke="#FFFFFF" stroke-miterlimit="10" points="847.482,1039.893 859.213,1014.298 878.523,1023.143 
	866.795,1048.744 "/>
<polygon fill="#00A651" stroke="#FFFFFF" stroke-miterlimit="10" points="878.523,1023.143 890.241,997.536 909.549,1006.375 
	897.814,1031.979 "/>
<polygon fill="#00A651" stroke="#FFFFFF" stroke-miterlimit="10" points="866.795,1048.744 878.523,1023.143 897.816,1031.979 
	886.105,1057.583 "/>
<polygon fill="#00A651" stroke="#FFFFFF" stroke-miterlimit="10" points="897.816,1031.979 909.549,1006.375 928.875,1015.214 
	917.48,1040.984 "/>
<polygon fill="#00A651" stroke="#FFFFFF" stroke-miterlimit="10" points="895.086,1061.691 895.477,1062.754 921.92,1053.093 
	917.48,1040.984 897.814,1031.979 886.105,1057.583 "/>
<polygon fill="#00A651" stroke="#FFFFFF" stroke-miterlimit="10" points="1041.075,1017.357 1086.426,1038.122 1053.145,1050.307 
	"/>
<polygon fill="#00A651" stroke="#FFFFFF" stroke-miterlimit="10" points="1053.145,1050.307 1086.426,1038.122 1088.068,1038.867 
	1095.127,1057.542 1060.426,1070.244 "/>
<polygon fill="#00A651" stroke="#FFFFFF" stroke-miterlimit="10" points="1067.738,1090.188 1102.529,1077.454 1109.85,1097.391 
	1075.032,1110.133 "/>
<polygon fill="#00A651" stroke="#FFFFFF" stroke-miterlimit="10" points="1075.029,1110.133 1109.85,1097.391 1113.709,1107.874 
	1116.836,1117.448 1082.329,1130.079 "/>
<polygon fill="#00A651" stroke="#FFFFFF" stroke-miterlimit="10" points="934.143,867.323 908.534,855.609 920.148,830.225 
	945.92,842.037 "/>
<rect x="957.393" y="1123.907" transform="matrix(-0.3436 -0.9391 0.9391 -0.3436 231.9399 2438.0918)" fill="#00A651" stroke="#FFFFFF" stroke-miterlimit="10" width="21.235" height="28.166"/>
<polygon fill="#00A651" stroke="#FFFFFF" stroke-miterlimit="10" points="939.252,1182.43 931.959,1162.484 958.4,1152.809 
	965.7,1172.754 "/>
<polygon fill="#00A651" stroke="#FFFFFF" stroke-miterlimit="10" points="965.7,1172.754 958.4,1152.809 984.854,1143.133 
	992.146,1163.077 "/>
<rect x="945.591" y="1173.461" transform="matrix(-0.3438 -0.939 0.939 -0.3438 169.8259 2493.7573)" fill="#00A651" stroke="#FFFFFF" stroke-miterlimit="10" width="21.24" height="28.164"/>
<polygon fill="#00A651" stroke="#FFFFFF" stroke-miterlimit="10" points="1089.629,1150.021 1082.329,1130.079 1116.836,1117.448 
	1123.426,1137.641 "/>
<polygon fill="#00A651" stroke="#FFFFFF" stroke-miterlimit="10" points="1034.2,1147.684 1026.906,1127.744 1053.346,1118.066 
	1060.646,1138.007 "/>
<polygon fill="#00A651" stroke="#FFFFFF" stroke-miterlimit="10" points="1041.502,1167.63 1034.2,1147.684 1060.646,1138.007 
	1067.947,1157.948 "/>
<polygon fill="#00A651" stroke="#FFFFFF" stroke-miterlimit="10" points="917.48,1040.984 928.875,1015.214 939.809,1020.053 
	948.363,1043.416 921.92,1053.093 "/>
<polygon fill="#00A651" stroke="#FFFFFF" stroke-miterlimit="10" points="949.055,636.104 916.217,636.112 916.206,599.484 
	949.357,599.471 "/>
<polygon fill="#D6473C" stroke="#FFFFFF" stroke-miterlimit="10" points="736.74,833.091 748.857,807.674 768.477,816.654 
	756.35,842.066 "/>
<polygon fill="#D6473C" stroke="#FFFFFF" stroke-miterlimit="10" points="548.02,1020.686 532.991,996.879 550.954,985.529 
	565.982,1009.354 "/>
<polygon fill="#D6473C" stroke="#FFFFFF" stroke-miterlimit="10" points="572.971,1177.762 544.305,1162.678 575.002,1143.016 
	590.031,1166.838 "/>
<polygon fill="#D6473C" stroke="#FFFFFF" stroke-miterlimit="10" points="971.813,1057.646 964.497,1037.699 990.961,1028.025 
	998.256,1047.963 "/>
<polygon fill="#D6473C" stroke="#FFFFFF" stroke-miterlimit="10" points="710.229,790.002 729.543,798.83 717.413,824.271 
	698.102,815.423 "/>
<polygon fill="#00A651" stroke="#FFFFFF" stroke-miterlimit="10" points="705.74,716.829 713.866,699.758 739.475,711.475 
	730.577,730.08 "/>
<polygon fill="#00A651" stroke="#FFFFFF" stroke-miterlimit="10" points="505.497,376.525 514.49,360.396 539.072,374.122 
	530.084,390.246 "/>
<polygon fill="#00A651" stroke="#FFFFFF" stroke-miterlimit="10" points="715.232,300.061 725.568,281.516 750.182,295.245 
	739.822,313.788 "/>
<polygon fill="#00A651" stroke="#FFFFFF" stroke-miterlimit="10" points="760.514,276.694 735.928,262.966 746.264,244.427 
	770.868,258.151 "/>
<polygon fill="#00A651" stroke="#FFFFFF" stroke-miterlimit="10" points="747.913,693.753 756.368,676.042 730.752,664.314 
	722.236,682.212 "/>
<polygon fill="#00A651" stroke="#FFFFFF" stroke-miterlimit="10" points="763.967,660.12 738.336,648.398 730.752,664.314 
	756.368,676.042 "/>
<polygon fill="#00A651" stroke="#FFFFFF" stroke-miterlimit="10" points="551.541,823.838 534.127,796.238 544.368,789.738 
	579.691,805.921 "/>
<polygon fill="#00A651" stroke="#FFFFFF" stroke-miterlimit="10" points="863.982,1187.527 856.7,1167.596 883.137,1157.934 
	890.43,1177.876 "/>
<polygon fill="#00A651" stroke="#FFFFFF" stroke-miterlimit="10" points="878.584,1227.443 871.286,1207.496 897.736,1197.818 
	905.023,1217.768 "/>
<polygon fill="#D6473C" stroke="#FFFFFF" stroke-miterlimit="10" points="494.366,547.446 511.885,525.389 528.51,538.586 
	511.014,560.652 "/>
<polygon fill="#00A651" stroke="#FFFFFF" stroke-miterlimit="10" points="604.913,1071.038 589.881,1047.213 607.846,1035.896 
	622.879,1059.7 "/>
<polygon fill="#00A651" stroke="#FFFFFF" stroke-miterlimit="10" points="719.133,350.882 694.525,337.15 704.861,318.602 
	729.467,332.325 "/>
<polygon fill="#00A651" stroke="#FFFFFF" stroke-miterlimit="10" points="729.469,332.326 704.865,318.6 715.221,300.063 
	739.822,313.788 730.967,329.657 "/>
<polygon fill="#00A651" stroke="#FFFFFF" stroke-miterlimit="10" points="750.159,295.245 725.568,281.51 735.906,262.968 
	760.514,276.693 "/>
<polygon fill="#00A651" stroke="#FFFFFF" stroke-miterlimit="10" points="616.311,293.506 591.732,279.787 602.068,261.24 
	626.678,274.964 "/>
<polygon fill="#00A651" stroke="#FFFFFF" stroke-miterlimit="10" points="580.479,299.938 605.066,313.669 594.725,332.206 
	570.115,318.489 "/>
<polygon fill="#00A651" stroke="#FFFFFF" stroke-miterlimit="10" points="754.997,370.893 730.416,357.18 740.764,338.627 
	765.354,352.355 "/>
<polygon fill="#00A651" stroke="#FFFFFF" stroke-miterlimit="10" points="692.125,575.823 682.7,595.612 708.391,607.368 
	716.859,589.618 "/>
<polygon fill="#00A651" stroke="#FFFFFF" stroke-miterlimit="10" points="662.23,742.648 671.377,723.479 696.977,735.195 
	687.825,754.374 "/>
<polygon fill="#00A651" stroke="#FFFFFF" stroke-miterlimit="10" points="671.377,723.479 680.531,704.313 706.115,716.029 
	696.977,735.195 "/>
<polygon fill="#D6473C" stroke="#FFFFFF" stroke-miterlimit="10" points="687.825,754.374 696.977,735.195 722.575,746.919 
	713.454,766.081 "/>
<polygon fill="#00A651" stroke="#FFFFFF" stroke-miterlimit="10" points="738.336,648.398 712.786,636.709 696.659,670.516 
	722.236,682.212 "/>
<polygon fill="#00A651" stroke="#FFFFFF" stroke-miterlimit="10" points="712.786,636.708 720.75,620.047 746.297,631.732 
	738.336,648.398 "/>
<polygon fill="#00A651" stroke="#FFFFFF" stroke-miterlimit="10" points="763.967,660.12 738.336,648.398 746.299,631.729 
	771.904,643.454 "/>
<polygon fill="#00A651" stroke="#FFFFFF" stroke-miterlimit="10" points="771.904,643.454 746.299,631.729 755.963,611.446 
	780.604,625.204 "/>
<polygon fill="#00A651" stroke="#FFFFFF" stroke-miterlimit="10" points="720.75,620.047 731.4,597.739 755.963,611.445 
	746.303,631.729 "/>
<polygon fill="#00A651" stroke="#FFFFFF" stroke-miterlimit="10" points="680.531,704.313 696.659,670.516 722.236,682.212 
	706.115,716.029 "/>
<polygon fill="#00A651" stroke="#FFFFFF" stroke-miterlimit="10" points="728.557,773.001 740.35,748.271 756.631,756.025 
	745.352,780.686 "/>
<polygon fill="#00A651" stroke="#FFFFFF" stroke-miterlimit="10" points="515.348,1128.057 500.299,1104.236 518.191,1092.782 
	533.215,1116.607 "/>
<polygon fill="#00A651" stroke="#FFFFFF" stroke-miterlimit="10" points="1005.545,1067.913 998.256,1047.963 1024.697,1038.291 
	1031.998,1058.234 "/>
<polygon fill="#00A651" stroke="#FFFFFF" stroke-miterlimit="10" points="883.137,1157.934 875.842,1137.987 902.286,1128.313 
	909.588,1148.255 "/>
<polygon fill="#00A651" stroke="#FFFFFF" stroke-miterlimit="10" points="868.543,1118.049 861.254,1098.086 887.691,1088.427 
	894.99,1108.369 "/>
<polygon fill="#00A651" stroke="#FFFFFF" stroke-miterlimit="10" points="733.541,1147.919 745.277,1122.33 764.586,1131.167 
	752.85,1156.772 "/>
<polygon fill="#00A651" stroke="#FFFFFF" stroke-miterlimit="10" points="505.573,499.17 522.784,477.469 540.157,491.25 
	522.926,512.941 "/>
<polygon fill="#00A651" stroke="#FFFFFF" stroke-miterlimit="10" points="477.734,534.241 495.229,512.189 511.885,525.391 
	494.366,547.443 "/>
<polygon fill="#00A651" stroke="#FFFFFF" stroke-miterlimit="10" points="658.732,580.45 683.616,593.691 692.174,575.841 
	667.493,562.075 "/>
<polygon fill="#00A651" stroke="#FFFFFF" stroke-miterlimit="10" points="705.74,716.829 696.977,735.195 722.575,746.919 
	730.577,730.08 "/>
<polygon fill="#00A651" stroke="#FFFFFF" stroke-miterlimit="10" points="722.236,682.212 747.926,693.753 739.475,711.475 
	713.865,699.758 "/>
<polygon fill="#00A651" stroke="#FFFFFF" stroke-miterlimit="10" points="789.988,771.922 773.311,763.971 762.145,788.363 
	778.926,796.057 "/>
<polygon fill="#D6473C" stroke="#FFFFFF" stroke-miterlimit="10" points="640.15,788.906 652.277,763.491 671.605,772.318 
	659.484,797.755 "/>
<polygon fill="#D6473C" stroke="#FFFFFF" stroke-miterlimit="10" points="659.484,797.755 671.605,772.318 690.918,781.161 
	678.793,806.583 "/>
<polygon fill="#D6473C" stroke="#FFFFFF" stroke-miterlimit="10" points="678.793,806.583 690.92,781.161 710.229,790.002 
	698.102,815.423 "/>
<polygon fill="#D6473C" stroke="#FFFFFF" stroke-miterlimit="10" points="729.543,798.83 748.857,807.674 736.74,833.091 
	717.413,824.271 "/>
<polygon fill="#00A651" stroke="#FFFFFF" stroke-miterlimit="10" points="547.719,497.248 560.297,481.41 584.988,499.357 
	579.471,509.23 574.781,518.729 "/>
<polygon fill="#00A651" stroke="#FFFFFF" stroke-miterlimit="10" points="554.674,403.975 530.084,390.243 539.072,374.122 
	563.678,387.85 "/>
<polygon fill="#00A651" stroke="#FFFFFF" stroke-miterlimit="10" points="600.045,506.468 594.188,516.965 589.688,526.068 
	614.198,539.747 617.038,533.821 624.559,520.348 "/>
<polygon fill="#D6473C" stroke="#FFFFFF" stroke-miterlimit="10" points="717.413,824.271 698.102,815.423 710.229,790.002 
	729.543,798.83 "/>
<polygon fill="#00A651" stroke="#FFFFFF" stroke-miterlimit="10" points="582.977,445.209 559.245,429.902 567.842,414.486 
	592.432,428.212 "/>
<polygon fill="#00A651" stroke="#FFFFFF" stroke-miterlimit="10" points="563.678,387.85 539.072,374.121 549.432,355.578 
	574.014,369.297 "/>
<polygon fill="#00A651" stroke="#FFFFFF" stroke-miterlimit="10" points="564.893,723.721 578.633,729.766 583.031,731.784 
	570.92,757.209 552.875,748.947 "/>
<polygon fill="#00A651" stroke="#FFFFFF" stroke-miterlimit="10" points="560.518,585.167 551.104,604.212 577.295,617.158 
	586.439,597.992 "/>
<polygon fill="#00A651" stroke="#FFFFFF" stroke-miterlimit="10" points="468.234,659.113 479.305,634.749 497.695,645.441 
	487.625,667.773 "/>
<polygon fill="#00A651" stroke="#FFFFFF" stroke-miterlimit="10" points="442.327,613.244 462.516,587.59 479.174,600.804 
	460.781,623.979 "/>
<polygon fill="#00A651" stroke="#FFFFFF" stroke-miterlimit="10" points="479.305,634.75 495.797,613.995 517.588,631.296 
	511.84,653.673 "/>
<polygon fill="#00A651" stroke="#FFFFFF" stroke-miterlimit="10" points="460.23,556.309 477.734,534.242 494.366,547.446 
	476.865,569.506 "/>
<polygon fill="#00A651" stroke="#FFFFFF" stroke-miterlimit="10" points="355.293,658.434 367.297,632.207 388.168,641.542 
	376.328,668.093 361.508,661.268 "/>
<polygon fill="#00A651" stroke="#FFFFFF" stroke-miterlimit="10" points="413.213,684.958 425.461,658.201 444.844,666.876 
	432.518,693.811 "/>
<polygon fill="#00A651" stroke="#FFFFFF" stroke-miterlimit="10" points="451.825,702.641 464.236,675.544 483.594,684.247 
	471.127,711.49 "/>
<polygon fill="#D6473C" stroke="#FFFFFF" stroke-miterlimit="10" points="316.664,640.775 328.516,614.881 347.904,623.55 
	335.975,649.607 "/>
<polygon fill="#00A651" stroke="#FFFFFF" stroke-miterlimit="10" points="633.829,354.034 609.23,340.309 619.575,321.762 
	644.163,335.488 "/>
<polygon fill="#00A651" stroke="#FFFFFF" stroke-miterlimit="10" points="635.438,500.842 610.846,487.12 621.182,468.579 
	645.793,482.292 "/>
<polygon fill="#D6473C" stroke="#FFFFFF" stroke-miterlimit="10" points="645.793,482.307 621.182,468.577 631.541,450.021 
	656.141,463.75 "/>
<polygon fill="#D6473C" stroke="#FFFFFF" stroke-miterlimit="10" points="656.141,463.751 631.541,450.021 641.893,431.489 
	666.482,445.215 "/>
<polygon fill="#D6473C" stroke="#FFFFFF" stroke-miterlimit="10" points="666.482,445.215 641.893,431.486 652.225,412.936 
	676.838,426.659 "/>
<polygon fill="#D6473C" stroke="#FFFFFF" stroke-miterlimit="10" points="676.838,426.66 652.225,412.934 662.588,394.4 
	687.184,408.117 "/>
<polygon fill="#00A651" stroke="#FFFFFF" stroke-miterlimit="10" points="687.184,408.117 662.588,394.398 672.934,375.855 
	697.527,389.579 "/>
<polygon fill="#00A651" stroke="#FFFFFF" stroke-miterlimit="10" points="697.527,389.579 672.934,375.854 683.277,357.302 
	707.883,371.025 "/>
<polygon fill="#00A651" stroke="#FFFFFF" stroke-miterlimit="10" points="559.786,337.032 570.115,318.486 594.725,332.206 
	584.375,350.761 "/>
<polygon fill="#00A651" stroke="#FFFFFF" stroke-miterlimit="10" points="549.432,355.577 559.786,337.032 584.375,350.759 
	574.016,369.299 "/>
<polygon fill="#00A651" stroke="#FFFFFF" stroke-miterlimit="10" points="521.516,405.604 530.084,390.246 554.672,403.975 
	545.238,420.889 "/>
<polygon fill="#D6473C" stroke="#FFFFFF" stroke-miterlimit="10" points="633.829,354.034 644.163,335.488 668.773,349.209 
	658.416,367.755 "/>
<polygon fill="#D6473C" stroke="#FFFFFF" stroke-miterlimit="10" points="623.48,372.57 633.829,354.034 658.416,367.754 
	648.063,386.296 "/>
<polygon fill="#00A651" stroke="#FFFFFF" stroke-miterlimit="10" points="623.48,372.57 598.883,358.852 609.23,340.311 
	633.829,354.034 "/>
<polygon fill="#00A651" stroke="#FFFFFF" stroke-miterlimit="10" points="588.531,377.396 598.883,358.854 623.479,372.57 
	613.125,391.125 "/>
<polygon fill="#00A651" stroke="#FFFFFF" stroke-miterlimit="10" points="613.125,391.123 623.48,372.568 648.063,386.295 
	637.719,404.835 "/>
<polygon fill="#00A651" stroke="#FFFFFF" stroke-miterlimit="10" points="602.782,409.66 578.184,395.951 588.531,377.396 
	613.125,391.123 "/>
<polygon fill="#00A651" stroke="#FFFFFF" stroke-miterlimit="10" points="602.782,409.66 613.125,391.123 637.719,404.835 
	627.372,423.389 "/>
<polygon fill="#00A651" stroke="#FFFFFF" stroke-miterlimit="10" points="570.988,466.631 580.247,450.032 556.534,434.752 
	556.157,435.428 545.098,449.352 "/>
<polygon fill="#00A651" stroke="#FFFFFF" stroke-miterlimit="10" points="594.486,482.311 570.988,466.631 580.247,450.033 
	603.965,465.333 "/>
<polygon fill="#00A651" stroke="#FFFFFF" stroke-miterlimit="10" points="617.02,441.93 592.432,428.211 602.782,409.66 
	627.372,423.389 "/>
<polygon fill="#00A651" stroke="#FFFFFF" stroke-miterlimit="10" points="592.432,428.212 567.842,414.486 578.184,395.952 
	602.782,409.658 "/>
<polygon fill="#00A651" stroke="#FFFFFF" stroke-miterlimit="10" points="606.676,460.479 582.977,445.21 592.432,428.214 
	617.02,441.93 "/>
<polygon fill="#00A651" stroke="#FFFFFF" stroke-miterlimit="10" points="624.559,520.348 600.045,506.468 610.846,487.12 
	635.436,500.842 "/>
<polygon fill="#00A651" stroke="#FFFFFF" stroke-miterlimit="10" points="756.35,842.066 768.477,816.654 787.793,825.479 
	775.659,850.903 "/>
<polygon fill="#00A651" stroke="#FFFFFF" stroke-miterlimit="10" points="775.659,850.903 787.793,825.479 807.104,834.324 
	794.977,859.744 "/>
<polygon fill="#00A651" stroke="#FFFFFF" stroke-miterlimit="10" points="814.286,868.574 826.411,843.157 845.723,851.992 
	833.605,877.415 "/>
<polygon fill="#00A651" stroke="#FFFFFF" stroke-miterlimit="10" points="794.977,859.744 807.102,834.324 826.409,843.157 
	814.286,868.574 "/>
<polygon fill="#00A651" stroke="#FFFFFF" stroke-miterlimit="10" points="833.605,877.415 845.723,851.992 865.032,860.818 
	852.92,886.256 "/>
<polygon fill="#00A651" stroke="#FFFFFF" stroke-miterlimit="10" points="852.92,886.256 865.032,860.818 884.35,869.667 
	872.62,895.273 854.666,887.049 "/>
<polygon fill="#00A651" stroke="#FFFFFF" stroke-miterlimit="10" points="619.133,748.29 637.17,756.544 625.034,781.99 
	606.979,773.732 "/>
<polygon fill="#00A651" stroke="#FFFFFF" stroke-miterlimit="10" points="589.688,526.068 579.141,547.446 604.697,559.673 
	614.198,539.747 "/>
<polygon fill="#00A651" stroke="#FFFFFF" stroke-miterlimit="10" points="579.141,547.446 569.896,566.154 595.563,578.852 
	604.697,559.673 "/>
<path fill="#00A651" stroke="#FFFFFF" stroke-miterlimit="10" d="M601.077,740.038l18.056,8.252l-12.152,25.442
	c-6.002-2.75-12.02-5.5-18.026-8.26L601.077,740.038z"/>
<polygon fill="#00A651" stroke="#FFFFFF" stroke-miterlimit="10" points="583.031,731.784 601.077,740.038 588.95,765.477 
	570.92,757.209 "/>
<polygon fill="#00A651" stroke="#FFFFFF" stroke-miterlimit="10" points="545.004,714.956 564.893,723.721 552.875,748.947 
	533.113,739.896 "/>
<polygon fill="#00A651" stroke="#FFFFFF" stroke-miterlimit="10" points="569.896,566.154 560.518,585.168 586.439,597.99 
	595.563,578.852 "/>
<polygon fill="#00A651" stroke="#FFFFFF" stroke-miterlimit="10" points="543.286,624.041 538.596,642.32 560.221,653.006 
	568.159,636.336 "/>
<polygon fill="#00A651" stroke="#FFFFFF" stroke-miterlimit="10" points="551.104,604.212 547.137,612.262 543.286,624.041 
	568.159,636.335 577.297,617.156 "/>
<polygon fill="#00A651" stroke="#FFFFFF" stroke-miterlimit="10" points="538.596,642.32 533.773,661.084 552.051,670.119 
	560.221,653.006 "/>
<polygon fill="#00A651" stroke="#FFFFFF" stroke-miterlimit="10" points="518.816,410.438 504.365,428.654 526.411,446.161 
	542.293,426.15 542.534,425.73 "/>
<polygon fill="#00A651" stroke="#FFFFFF" stroke-miterlimit="10" points="533.566,463.896 522.782,477.469 547.719,497.248 
	560.297,481.41 "/>
<polygon fill="#00A651" stroke="#FFFFFF" stroke-miterlimit="10" points="522.926,512.941 540.157,491.25 557.508,505.02 
	540.291,526.72 "/>
<polygon fill="#00A651" stroke="#FFFFFF" stroke-miterlimit="10" points="540.291,526.72 557.508,505.02 574.781,518.727 
	562.238,544.137 "/>
<polygon fill="#00A651" stroke="#FFFFFF" stroke-miterlimit="10" points="506.104,676.042 487.627,667.773 497.695,645.441 
	511.84,653.673 "/>
<polygon fill="#00A651" stroke="#FFFFFF" stroke-miterlimit="10" points="448.846,650.45 460.781,623.979 479.305,634.749 
	468.234,659.113 "/>
<polygon fill="#00A651" stroke="#FFFFFF" stroke-miterlimit="10" points="429.459,641.785 442.327,613.244 460.781,623.979 
	448.846,650.45 "/>
<polygon fill="#00A651" stroke="#FFFFFF" stroke-miterlimit="10" points="409.992,633.086 423.463,602.629 423.661,602.388 
	442.327,613.246 429.456,641.785 "/>
<polygon fill="#00A651" stroke="#FFFFFF" stroke-miterlimit="10" points="423.661,602.388 445.877,574.38 462.516,587.588 
	442.327,613.246 "/>
<polygon fill="#00A651" stroke="#FFFFFF" stroke-miterlimit="10" points="460.781,623.979 479.172,600.804 495.797,613.996 
	479.305,634.75 "/>
<polygon fill="#D6473C" stroke="#FFFFFF" stroke-miterlimit="10" points="477.734,534.241 495.229,512.189 511.885,525.391 
	494.366,547.443 "/>
<polygon fill="#D6473C" stroke="#FFFFFF" stroke-miterlimit="10" points="494.366,547.446 511.885,525.389 528.51,538.586 
	511.014,560.652 "/>
<polygon fill="#D6473C" stroke="#FFFFFF" stroke-miterlimit="10" points="511.014,560.653 528.51,538.587 545.143,551.788 
	527.648,573.854 "/>
<polygon fill="#00A651" stroke="#FFFFFF" stroke-miterlimit="10" points="527.648,573.852 545.143,551.789 554.719,559.383 
	541.952,585.218 "/>
<polygon fill="#00A651" stroke="#FFFFFF" stroke-miterlimit="10" points="476.865,569.505 494.366,547.447 511.014,560.653 
	493.497,582.703 "/>
<polygon fill="#00A651" stroke="#FFFFFF" stroke-miterlimit="10" points="493.512,582.717 511.014,560.654 527.648,573.852 
	510.125,595.909 "/>
<polygon fill="#D6473C" stroke="#FFFFFF" stroke-miterlimit="10" points="510.125,595.908 527.648,573.852 541.952,585.217 
	529.198,611.045 "/>
<polygon fill="#00A651" stroke="#FFFFFF" stroke-miterlimit="10" points="425.157,528.465 438.357,511.831 460.42,529.335 
	447.213,545.97 "/>
<polygon fill="#00A651" stroke="#FFFFFF" stroke-miterlimit="10" points="438.361,511.831 451.557,495.195 473.615,512.702 
	460.415,529.334 "/>
<rect x="458.635" y="481.587" transform="matrix(0.6215 -0.7834 0.7834 0.6215 -210.7031 555.2114)" fill="#00A651" stroke="#FFFFFF" stroke-miterlimit="10" width="21.235" height="28.164"/>
<rect x="471.769" y="464.947" transform="matrix(0.6214 -0.7835 0.7835 0.6214 -192.6846 559.3196)" fill="#00A651" stroke="#FFFFFF" stroke-miterlimit="10" width="21.234" height="28.167"/>
<polygon fill="#00A651" stroke="#FFFFFF" stroke-miterlimit="10" points="477.952,461.924 491.152,445.292 513.213,462.806 
	500.012,479.431 "/>
<polygon fill="#00A651" stroke="#FFFFFF" stroke-miterlimit="10" points="491.154,445.292 504.363,428.657 526.411,446.161 
	513.211,462.806 "/>
<g>
	<polygon id="centr32" fill="#00A651" stroke="#FFFFFF" stroke-miterlimit="10" points="362.541,478.771 376.088,462.423 
		398.219,479.969 385.018,496.614 	"/>
	<polygon id="centr19" fill="#00A651" stroke="#FFFFFF" stroke-miterlimit="10" points="505.497,376.525 530.084,390.246 
		521.516,405.604 497.801,390.314 	"/>
	<polygon id="centr26" fill="#00A651" stroke="#FFFFFF" stroke-miterlimit="10" points="403.207,429.714 416.75,413.363 
		437.82,430.07 424.618,446.707 	"/>
	<polygon id="centr18" fill="#00A651" stroke="#FFFFFF" stroke-miterlimit="10" points="457.436,364.301 469.581,349.635 
		470.889,346.626 490.913,355.279 477.148,379.954 	"/>
	<polygon id="centr9" fill="#D6473C" stroke="#FFFFFF" stroke-miterlimit="10" points="570.115,318.488 545.534,304.764 
		555.889,286.226 580.479,299.938 	"/>
	<polygon id="centr11" fill="#D6473C" stroke="#FFFFFF" stroke-miterlimit="10" points="535.18,323.307 545.534,304.766 
		570.115,318.488 559.786,337.034 	"/>
	<polygon id="centr13" fill="#D6473C" stroke="#FFFFFF" stroke-miterlimit="10" points="549.432,355.577 524.842,341.857 
		535.18,323.307 559.786,337.032 	"/>
	<polygon id="centr17" fill="#00A651" stroke="#FFFFFF" stroke-miterlimit="10" points="530.084,390.245 505.497,376.523 
		514.49,360.396 539.072,374.122 	"/>
	<polygon id="centr15" fill="#D6473C" stroke="#FFFFFF" stroke-miterlimit="10" points="539.072,374.122 514.49,360.396 
		524.842,341.857 549.432,355.577 	"/>
	<polygon id="centr31" fill="#00A651" stroke="#FFFFFF" stroke-miterlimit="10" points="425.157,528.465 403.086,510.963 
		416.289,494.326 438.357,511.831 	"/>
	<polygon id="centr29" fill="#00A651" stroke="#FFFFFF" stroke-miterlimit="10" points="438.361,511.831 416.289,494.326 
		429.488,477.684 451.557,495.195 	"/>
	<polygon id="centr27_1_" fill="#D6473C" stroke="#FFFFFF" stroke-miterlimit="10" points="451.557,495.195 429.488,477.684 
		442.7,461.055 464.758,478.561 	"/>
	<polygon id="centr27" fill="#D6473C" stroke="#FFFFFF" stroke-miterlimit="10" points="464.758,478.561 442.698,461.059 
		455.906,444.425 477.952,461.924 	"/>
	<polygon id="centr25" fill="#D6473C" stroke="#FFFFFF" stroke-miterlimit="10" points="477.952,461.924 455.904,444.426 
		469.105,427.786 491.152,445.292 	"/>
	<polygon id="centr23" fill="#D6473C" stroke="#FFFFFF" stroke-miterlimit="10" points="491.154,445.292 469.105,427.786 
		482.303,411.152 504.363,428.657 	"/>
	<polygon id="centr21" fill="#D6473C" stroke="#FFFFFF" stroke-miterlimit="10" points="504.363,428.657 482.303,411.152 
		495.023,395.123 518.813,410.438 	"/>
	<polygon id="centr30" fill="#00A651" stroke="#FFFFFF" stroke-miterlimit="10" points="376.088,462.423 389.648,446.066 
		411.412,463.344 398.219,479.968 	"/>
	<polygon id="centr28" fill="#00A651" stroke="#FFFFFF" stroke-miterlimit="10" points="389.648,446.066 403.205,429.716 
		424.618,446.707 411.412,463.343 	"/>
	<polygon id="centr24" fill="#00A651" stroke="#FFFFFF" stroke-miterlimit="10" points="416.75,413.363 430.313,397.01 
		451.02,413.438 437.82,430.07 	"/>
	<polygon id="centr22" fill="#00A651" stroke="#FFFFFF" stroke-miterlimit="10" points="430.313,397.008 443.868,380.652 
		464.219,396.802 451.02,413.438 	"/>
	<polygon id="centr20" fill="#00A651" stroke="#FFFFFF" stroke-miterlimit="10" points="443.872,380.652 457.436,364.305 
		477.148,379.954 476.098,381.836 464.219,396.803 	"/>
	<polygon id="centr12" fill="#00A651" stroke="#FFFFFF" stroke-miterlimit="10" points="494.454,300.582 504.803,282.04 
		525.381,293.516 515.029,312.066 	"/>
	<polygon id="centr10" fill="#00A651" stroke="#FFFFFF" stroke-miterlimit="10" points="525.381,293.516 504.803,282.04 
		515.311,263.21 535.719,274.97 	"/>
	<polygon id="centr14" fill="#00A651" stroke="#FFFFFF" stroke-miterlimit="10" points="504.68,330.605 484.118,319.136 
		494.454,300.582 515.029,312.066 	"/>
	<polygon id="centr16" fill="#00A651" stroke="#FFFFFF" stroke-miterlimit="10" points="490.913,355.279 470.889,346.626 
		478.152,329.818 484.118,319.136 504.68,330.605 	"/>
</g>
<polygon fill="#00A651" stroke="#FFFFFF" stroke-miterlimit="10" points="409.535,545.537 432.859,564.054 409.141,593.939 
	383.133,578.805 "/>
<polygon fill="none" stroke="#FFFFFF" stroke-miterlimit="10" points="293.814,581.168 302.037,564.636 327.498,580.084 
	321.4,593.559 "/>
<path fill="#00A651" stroke="#FFFFFF" stroke-miterlimit="10" d="M367.381,614.034l15.752-35.229l26.008,15.134
	c-0.016,0.022-14.309,32.357-14.309,32.357L367.381,614.034z"/>
<polygon fill="#00A651" stroke="#FFFFFF" stroke-miterlimit="10" points="297.334,631.952 309.125,606.217 328.516,614.884 
	316.664,640.775 "/>
<polygon fill="#D6473C" stroke="#FFFFFF" stroke-miterlimit="10" points="335.975,649.607 347.904,623.551 367.297,632.206 
	355.293,658.434 "/>
<polygon fill="#D6473C" stroke="#FFFFFF" stroke-miterlimit="10" points="391.445,675.012 403.344,648.325 425.461,658.201 
	413.213,684.958 "/>
<polygon fill="#00A651" stroke="#FFFFFF" stroke-miterlimit="10" points="432.518,693.811 444.844,666.876 464.238,675.544 
	451.825,702.641 "/>
<polygon fill="#00A651" stroke="#FFFFFF" stroke-miterlimit="10" points="471.127,711.49 483.594,684.247 501.896,692.372 
	494.26,722.086 "/>
<polygon fill="#00A651" stroke="#FFFFFF" stroke-miterlimit="10" points="278.018,623.126 289.756,597.512 309.111,606.225 
	297.334,631.951 "/>
<polygon fill="#00A651" stroke="#FFFFFF" stroke-miterlimit="10" points="570.988,466.631 560.297,481.41 584.988,499.357 
	594.506,482.311 "/>
<polygon fill="#00A651" stroke="#FFFFFF" stroke-miterlimit="10" points="545.098,449.352 533.566,463.896 560.297,481.41 
	570.988,466.631 "/>
<g>
	<polygon id="centr39" fill="#D6473C" stroke="#FFFFFF" stroke-miterlimit="10" points="336.605,600.277 346.596,576.936 
		361.898,584.521 352,607.146 	"/>
	<polygon id="centr41" fill="#00A651" stroke="#FFFFFF" stroke-miterlimit="10" points="293.814,581.168 302.037,564.636 
		327.498,580.084 321.4,593.559 	"/>
	<polygon id="centr37" fill="#D6473C" stroke="#FFFFFF" stroke-miterlimit="10" points="346.596,576.936 359.818,560.305 
		383.133,578.805 377.195,592.1 	"/>
	<polygon id="centr35" fill="#D6473C" stroke="#FFFFFF" stroke-miterlimit="10" points="359.81,560.496 372.83,543.723 
		396.339,561.986 383.317,578.75 	"/>
	<polygon id="centr33" fill="#D6473C" stroke="#FFFFFF" stroke-miterlimit="10" points="373.014,543.669 386.215,527.035 
		409.535,545.537 396.328,562.178 	"/>
	<polygon id="centr36" fill="#00A651" stroke="#FFFFFF" stroke-miterlimit="10" points="323.469,531.46 336.666,514.824 
		359.998,533.334 346.795,549.968 	"/>
	<polygon id="centr38" fill="#00A651" stroke="#FFFFFF" stroke-miterlimit="10" points="310.264,548.092 323.469,531.46 
		346.795,549.968 333.6,566.604 	"/>
	<polygon id="centrxx" fill="#D6473C" stroke="#FFFFFF" stroke-miterlimit="10" points="361.898,584.521 377.195,592.097 
		367.381,614.034 352,607.146 	"/>
	<polygon id="centr40" fill="#00A651" stroke="#FFFFFF" stroke-miterlimit="10" points="302.055,564.627 310.264,548.085 
		333.6,566.604 327.498,580.076 	"/>
	<polygon id="centr342" fill="#00A651" stroke="#FFFFFF" stroke-miterlimit="10" points="337.338,514.824 350.36,498.55 
		372.786,517.156 359.998,533.334 	"/>
</g>
<polygon fill="#D6473C" stroke="#FFFFFF" stroke-miterlimit="10" points="800.889,687.107 791.827,706.313 766.18,694.08 
	775.32,674.92 "/>
<polygon fill="#00A651" stroke="#FFFFFF" stroke-miterlimit="10" points="806.107,779.607 795.963,803.83 806.352,808.591 
	823.245,797.504 809.896,777.117 "/>
<polygon fill="#00A651" stroke="#FFFFFF" stroke-miterlimit="10" points="677.782,451.506 688.111,432.964 712.721,446.689 
	702.359,465.227 "/>
<polygon fill="#00A651" stroke="#FFFFFF" stroke-miterlimit="10" points="692.014,483.778 667.422,470.053 677.782,451.507 
	702.357,465.225 "/>
<polygon fill="#00A651" stroke="#FFFFFF" stroke-miterlimit="10" points="737.572,436.247 747.926,417.691 772.512,431.417 
	762.163,449.967 "/>
<polygon fill="#00A651" stroke="#FFFFFF" stroke-miterlimit="10" points="762.163,449.965 772.512,431.417 797.104,445.146 
	786.764,463.686 "/>
<polygon fill="#00A651" stroke="#FFFFFF" stroke-miterlimit="10" points="836.206,466.958 846.566,448.422 871.148,462.129 
	860.797,480.686 "/>
<polygon fill="#D6473C" stroke="#FFFFFF" stroke-miterlimit="10" points="805.159,522.592 815.518,504.042 840.105,517.766 
	829.754,536.316 "/>
<polygon fill="#D6473C" stroke="#FFFFFF" stroke-miterlimit="10" points="809.063,573.409 784.473,559.678 794.827,541.146 
	819.409,554.854 "/>
<polygon fill="#00A651" stroke="#FFFFFF" stroke-miterlimit="10" points="837.811,613.763 813.229,600.042 823.584,581.508 
	848.172,595.227 "/>
<polygon fill="#00A651" stroke="#FFFFFF" stroke-miterlimit="10" points="827.477,632.318 802.872,618.588 813.229,600.042 
	837.811,613.762 "/>
<polygon fill="#D6473C" stroke="#FFFFFF" stroke-miterlimit="10" points="700.068,561.223 675.486,547.504 685.82,528.962 
	710.424,542.686 "/>
<polygon fill="#00A651" stroke="#FFFFFF" stroke-miterlimit="10" points="660.971,539.414 636.377,525.682 646.729,507.141 
	671.316,520.859 "/>
<polygon fill="#D6473C" stroke="#FFFFFF" stroke-miterlimit="10" points="774.116,578.227 749.527,564.509 759.866,545.961 
	784.473,559.678 "/>
<rect x="777.5" y="565.22" transform="matrix(-0.8732 -0.4874 0.4874 -0.8732 1202.1243 1464.4646)" fill="#D6473C" stroke="#FFFFFF" stroke-miterlimit="10" width="28.166" height="21.242"/>
<polygon fill="#00A651" stroke="#FFFFFF" stroke-miterlimit="10" points="868.852,558.129 844.275,544.419 854.629,525.868 
	879.213,539.593 "/>
<polygon fill="#00A651" stroke="#FFFFFF" stroke-miterlimit="10" points="871.241,535.148 854.629,525.868 863.609,509.745 
	880.243,519.028 "/>
<polygon fill="#00A651" stroke="#FFFFFF" stroke-miterlimit="10" points="893.443,571.859 868.852,558.128 879.213,539.594 
	893.659,547.652 893.659,571.49 "/>
<polygon fill="#00A651" stroke="#FFFFFF" stroke-miterlimit="10" points="883.109,590.4 858.506,576.684 868.852,558.13 
	893.445,571.859 "/>
<polygon fill="#00A651" stroke="#FFFFFF" stroke-miterlimit="10" points="639.773,685.663 614.17,673.941 623.309,654.768 
	648.918,666.491 "/>
<polygon fill="#00A651" stroke="#FFFFFF" stroke-miterlimit="10" points="841.016,785.869 820.516,754.568 838.26,742.932 
	858.773,774.227 "/>
<polygon fill="#00A651" stroke="#FFFFFF" stroke-miterlimit="10" points="858.773,774.227 838.26,742.932 856.027,731.287 
	876.541,762.594 "/>
<polygon fill="#00A651" stroke="#FFFFFF" stroke-miterlimit="10" points="946.454,842.037 920.684,830.225 936.195,796.391 
	952.12,839.949 "/>
<polygon fill="#00A651" stroke="#FFFFFF" stroke-miterlimit="10" points="630.639,704.833 605.032,693.111 614.17,673.941 
	639.773,685.663 "/>
<polygon fill="#00A651" stroke="#FFFFFF" stroke-miterlimit="10" points="698.465,414.42 708.823,395.881 733.402,409.591 
	723.057,428.146 "/>
<polygon fill="#00A651" stroke="#FFFFFF" stroke-miterlimit="10" points="708.823,395.881 719.161,377.325 743.766,391.055 
	733.402,409.591 "/>
<polygon fill="#00A651" stroke="#FFFFFF" stroke-miterlimit="10" points="688.111,432.964 698.465,414.42 723.057,428.145 
	712.721,446.689 "/>
<polygon fill="#00A651" stroke="#FFFFFF" stroke-miterlimit="10" points="681.666,502.316 657.066,488.597 667.422,470.055 
	692.014,483.778 "/>
<polygon fill="#00A651" stroke="#FFFFFF" stroke-miterlimit="10" points="747.926,417.691 758.27,399.154 782.866,412.864 
	772.512,431.418 "/>
<polygon fill="#D6473C" stroke="#FFFFFF" stroke-miterlimit="10" points="727.225,454.782 737.572,436.247 762.163,449.965 
	751.822,468.51 "/>
<polygon fill="#D6473C" stroke="#FFFFFF" stroke-miterlimit="10" points="716.879,473.329 727.225,454.782 751.822,468.508 
	741.467,487.054 "/>
<polygon fill="#D6473C" stroke="#FFFFFF" stroke-miterlimit="10" points="720.779,524.146 696.182,510.415 706.531,491.881 
	731.12,505.589 "/>
<polygon fill="#D6473C" stroke="#FFFFFF" stroke-miterlimit="10" points="731.12,505.591 706.531,491.88 716.879,473.33 
	741.467,487.053 "/>
<polygon fill="#00A651" stroke="#FFFFFF" stroke-miterlimit="10" points="772.512,431.417 782.866,412.863 807.456,426.594 
	797.104,445.146 "/>
<polygon fill="#00A651" stroke="#FFFFFF" stroke-miterlimit="10" points="751.822,468.508 762.161,449.965 786.764,463.686 
	776.416,482.232 "/>
<polygon fill="#00A651" stroke="#FFFFFF" stroke-miterlimit="10" points="741.467,487.053 751.822,468.508 776.416,482.23 
	766.059,500.773 "/>
<polygon fill="#D6473C" stroke="#FFFFFF" stroke-miterlimit="10" points="755.721,519.318 731.12,505.589 741.467,487.054 
	766.059,500.77 "/>
<polygon fill="#D6473C" stroke="#FFFFFF" stroke-miterlimit="10" points="745.372,537.87 720.779,524.146 731.12,505.592 
	755.721,519.316 "/>
<polygon fill="#00A651" stroke="#FFFFFF" stroke-miterlimit="10" points="801.264,471.782 811.633,453.236 836.206,466.958 
	825.87,485.512 "/>
<polygon fill="#00A651" stroke="#FFFFFF" stroke-miterlimit="10" points="811.633,453.236 821.963,434.691 846.566,448.422 
	836.206,466.959 "/>
<polygon fill="#00A651" stroke="#FFFFFF" stroke-miterlimit="10" points="780.57,508.874 790.922,490.327 815.516,504.042 
	805.159,522.593 "/>
<polygon fill="#00A651" stroke="#FFFFFF" stroke-miterlimit="10" points="790.922,490.328 801.264,471.782 825.87,485.511 
	815.518,504.044 "/>
<polygon fill="#D6473C" stroke="#FFFFFF" stroke-miterlimit="10" points="794.827,541.146 770.221,527.416 780.57,508.875 
	805.159,522.591 "/>
<polygon fill="#D6473C" stroke="#FFFFFF" stroke-miterlimit="10" points="784.473,559.68 759.866,545.959 770.221,527.417 
	794.827,541.146 "/>
<polygon fill="#00A651" stroke="#FFFFFF" stroke-miterlimit="10" points="825.87,485.511 836.202,466.957 860.797,480.684 
	850.454,499.232 "/>
<polygon fill="#00A651" stroke="#FFFFFF" stroke-miterlimit="10" points="815.518,504.042 825.87,485.511 850.454,499.23 
	840.105,517.766 "/>
<polygon fill="#D6473C" stroke="#FFFFFF" stroke-miterlimit="10" points="819.409,554.854 794.827,541.146 805.159,522.593 
	829.754,536.316 "/>
<polygon fill="#00A651" stroke="#FFFFFF" stroke-miterlimit="10" points="848.172,595.227 858.506,576.684 883.109,590.4 
	872.752,608.95 "/>
<polygon fill="#00A651" stroke="#FFFFFF" stroke-miterlimit="10" points="862.424,627.492 837.811,613.762 848.172,595.227 
	872.752,608.949 "/>
<polygon fill="#00A651" stroke="#FFFFFF" stroke-miterlimit="10" points="852.057,646.035 827.477,632.318 837.811,613.764 
	862.424,627.492 "/>
<polygon fill="#00A651" stroke="#FFFFFF" stroke-miterlimit="10" points="823.584,581.509 833.916,562.953 858.506,576.684 
	848.172,595.227 "/>
<polygon fill="#D6473C" stroke="#FFFFFF" stroke-miterlimit="10" points="710.424,542.686 685.82,528.961 696.182,510.417 
	720.758,524.132 "/>
<polygon fill="#00A651" stroke="#FFFFFF" stroke-miterlimit="10" points="671.316,520.859 646.729,507.139 657.066,488.6 
	681.654,502.316 "/>
<polygon fill="#D6473C" stroke="#FFFFFF" stroke-miterlimit="10" points="763.77,596.771 739.178,583.048 749.527,564.511 
	774.116,578.227 "/>
<polygon fill="#D6473C" stroke="#FFFFFF" stroke-miterlimit="10" points="735.01,556.406 710.424,542.682 720.762,524.135 
	745.372,537.863 "/>
<polygon fill="#D6473C" stroke="#FFFFFF" stroke-miterlimit="10" points="724.654,574.954 700.068,561.222 710.424,542.686 
	735.01,556.405 "/>
<polygon fill="#D6473C" stroke="#FFFFFF" stroke-miterlimit="10" points="788.368,610.49 763.77,596.771 774.116,578.229 
	798.704,591.953 "/>
<polygon fill="#00A651" stroke="#FFFFFF" stroke-miterlimit="10" points="858.506,576.684 833.916,562.953 844.275,544.42 
	868.852,558.128 "/>
<polygon fill="#00A651" stroke="#FFFFFF" stroke-miterlimit="10" points="893.639,526.504 863.609,509.744 872.62,493.619 
	893.639,505.352 893.639,513.716 "/>
<polygon fill="#00A651" stroke="#FFFFFF" stroke-miterlimit="10" points="872.62,493.621 885.67,470.232 893.639,474.682 
	893.639,505.352 "/>
<polygon fill="#D6473C" stroke="#FFFFFF" stroke-miterlimit="10" points="595.895,712.273 605.032,693.111 630.639,704.833 
	621.495,724.006 "/>
<polygon fill="#00A651" stroke="#FFFFFF" stroke-miterlimit="10" points="630.639,704.833 656.26,716.566 647.122,735.732 
	621.495,724.006 "/>
<polygon fill="#00A651" stroke="#FFFFFF" stroke-miterlimit="10" points="630.639,704.833 639.773,685.663 665.409,697.396 
	656.26,716.566 "/>
<polygon fill="#00A651" stroke="#FFFFFF" stroke-miterlimit="10" points="639.773,685.663 648.918,666.491 674.561,678.229 
	665.409,697.396 "/>
<polygon fill="#00A651" stroke="#FFFFFF" stroke-miterlimit="10" points="648.918,666.491 665.809,631.05 691.477,642.798 
	674.559,678.229 "/>
<polygon fill="#D6473C" stroke="#FFFFFF" stroke-miterlimit="10" points="648.918,666.491 623.309,654.768 632.459,635.602 
	658.063,647.325 "/>
<polygon fill="#00A651" stroke="#FFFFFF" stroke-miterlimit="10" points="691.477,642.798 665.809,631.049 682.7,595.612 
	708.391,607.367 "/>
<polygon fill="#00A651" stroke="#FFFFFF" stroke-miterlimit="10" points="658.732,580.45 649.967,598.836 675.098,611.572 
	683.616,593.691 "/>
<polygon fill="#00A651" stroke="#FFFFFF" stroke-miterlimit="10" points="658.063,647.325 632.459,635.602 641.195,617.208 
	666.568,629.445 "/>
<polygon fill="#00A651" stroke="#FFFFFF" stroke-miterlimit="10" points="895.754,685.859 871.954,716.854 884.184,735.494 
	908.161,719.791 "/>
<polygon fill="#00A651" stroke="#FFFFFF" stroke-miterlimit="10" points="884.184,735.494 894.303,750.941 914.678,737.597 
	908.161,719.791 "/>
<polygon fill="#00A651" stroke="#FFFFFF" stroke-miterlimit="10" points="823.245,797.504 809.896,777.117 827.656,765.482 
	841.016,785.869 "/>
<polygon fill="#00A651" stroke="#FFFFFF" stroke-miterlimit="10" points="876.541,762.594 856.027,731.287 865.823,724.861 
	871.954,716.854 894.303,750.941 "/>
<polygon fill="#00A651" stroke="#FFFFFF" stroke-miterlimit="10" points="652.159,555.641 627.51,541.884 628.525,539.762 
	636.377,525.684 660.971,539.413 653.551,552.691 "/>
<polygon fill="#00A651" stroke="#FFFFFF" stroke-miterlimit="10" points="867.807,651.91 893.689,666.344 893.663,632.242 
	881.635,627.125 "/>
<polygon fill="#00A651" stroke="#FFFFFF" stroke-miterlimit="10" points="894.141,687.966 895.754,685.859 893.689,680.217 
	893.689,673.398 893.689,666.344 867.807,651.91 862.836,660.825 858.079,670.784 "/>
<polygon fill="#00A651" stroke="#FFFFFF" stroke-miterlimit="10" points="858.079,670.784 894.141,687.966 880.922,705.198 
	848.945,689.959 "/>
<polygon fill="#00A651" stroke="#FFFFFF" stroke-miterlimit="10" points="848.945,689.959 880.922,705.198 867.688,722.423 
	839.805,709.125 "/>
<polygon fill="#00A651" stroke="#FFFFFF" stroke-miterlimit="10" points="839.805,709.125 867.688,722.423 865.823,724.861 
	820.516,754.568 819.434,751.911 "/>
<polygon fill="#00A651" stroke="#FFFFFF" stroke-miterlimit="10" points="795.157,633.314 819.784,647.063 809.956,667.9 
	784.459,655.749 "/>
<polygon fill="#00A651" stroke="#FFFFFF" stroke-miterlimit="10" points="819.784,647.063 844.438,660.811 835.295,679.987 
	809.956,667.903 "/>
<polygon fill="#00A651" stroke="#FFFFFF" stroke-miterlimit="10" points="809.956,667.903 835.295,679.987 826.15,699.156 
	800.889,687.107 "/>
<polygon fill="#00A651" stroke="#FFFFFF" stroke-miterlimit="10" points="809.866,667.862 800.889,687.107 775.32,674.92 
	784.459,655.749 "/>
<polygon fill="#00A651" stroke="#FFFFFF" stroke-miterlimit="10" points="800.889,687.107 826.15,699.156 817.016,718.321 
	791.827,706.313 "/>
<polygon fill="#00A651" stroke="#FFFFFF" stroke-miterlimit="10" points="791.827,706.313 817.016,718.321 807.875,737.496 
	782.779,725.523 "/>
<polygon fill="#00A651" stroke="#FFFFFF" stroke-miterlimit="10" points="791.827,706.313 782.779,725.523 757.038,713.254 
	766.18,694.08 "/>
<polygon fill="#00A651" stroke="#FFFFFF" stroke-miterlimit="10" points="757.038,713.254 782.779,725.523 774.516,743.066 
	748.691,730.751 "/>
<polygon fill="#00A651" stroke="#FFFFFF" stroke-miterlimit="10" points="782.779,725.523 807.875,737.494 804.471,744.777 
	810.527,747.654 796.43,774.993 766.24,760.604 "/>
<polygon fill="#00A651" stroke="#FFFFFF" stroke-miterlimit="10" points="886.014,776.25 897.928,794.445 915.564,782.591 
	903.771,764.618 "/>
<polygon fill="#00A651" stroke="#FFFFFF" stroke-miterlimit="10" points="868.241,787.891 880.303,806.285 897.928,794.445 
	886.014,776.25 "/>
<polygon fill="#00A651" stroke="#FFFFFF" stroke-miterlimit="10" points="845.641,802.72 869.396,813.59 880.303,806.285 
	868.241,787.891 "/>
<polygon fill="#00A651" stroke="#FFFFFF" stroke-miterlimit="10" points="915.564,782.591 928.068,774.2 920.531,753.624 
	903.771,764.618 "/>
<polygon fill="#00A651" stroke="#FFFFFF" stroke-miterlimit="10" points="928.068,774.2 911.62,810.128 889.116,800.372 "/>
<polygon fill="#00A651" stroke="#FFFFFF" stroke-miterlimit="10" points="889.116,800.372 911.62,810.128 902.991,828.965 
	869.396,813.592 "/>
<polygon fill="#00A651" stroke="#FFFFFF" stroke-miterlimit="10" points="869.396,813.592 902.991,828.965 893.956,848.688 
	860.379,833.313 "/>
<polygon fill="#00A651" stroke="#FFFFFF" stroke-miterlimit="10" points="869.396,813.592 845.641,802.722 824.211,816.754 
	860.379,833.313 "/>
<polygon fill="#00A651" stroke="#FFFFFF" stroke-miterlimit="10" points="893.659,547.65 871.243,535.148 880.243,519.028 
	893.639,526.503 "/>
<polygon fill="#D6473C" stroke="#FFFFFF" stroke-miterlimit="10" points="554.941,694.111 564.262,674.572 589.87,686.297 
	580.734,705.471 "/>
<polygon fill="#00A651" stroke="#FFFFFF" stroke-miterlimit="10" points="564.262,674.572 571.872,658.609 597.284,670.729 
	589.87,686.297 "/>
<polygon fill="#00A651" stroke="#FFFFFF" stroke-miterlimit="10" points="587.363,626.104 595.497,609.032 620.484,622.075 
	612.771,638.216 "/>
<polygon fill="#00A651" stroke="#FFFFFF" stroke-miterlimit="10" points="579.622,642.354 587.363,626.104 612.771,638.216 
	605.032,654.479 "/>
<polygon fill="#00A651" stroke="#FFFFFF" stroke-miterlimit="10" points="533.773,661.084 528.307,682.375 543.104,688.893 
	552.051,670.119 "/>
<polygon fill="#00A651" stroke="#FFFFFF" stroke-miterlimit="10" points="666.568,629.445 675.098,611.573 649.967,598.835 
	641.195,617.208 "/>
<polygon fill="#00A651" stroke="#FFFFFF" stroke-miterlimit="10" points="652.159,555.641 644.409,571.891 619.551,558.588 
	627.51,541.884 "/>
<polygon fill="#00A651" stroke="#FFFFFF" stroke-miterlimit="10" points="619.551,558.588 644.409,571.891 636.452,588.578 
	611.598,575.279 "/>
<polygon id="pochtxx2" fill="#00A651" stroke="#FFFFFF" stroke-miterlimit="10" points="611.598,575.278 636.452,588.578 
	628.493,605.261 603.635,591.961 "/>
<polygon id="pochtxx1" fill="#00A651" stroke="#FFFFFF" stroke-miterlimit="10" points="603.635,591.96 628.493,605.261 
	620.484,622.074 595.497,609.032 "/>
<polygon id="pocht39" fill="#00A651" stroke="#FFFFFF" stroke-miterlimit="10" points="579.622,642.354 605.032,654.479 
	597.284,670.729 571.872,658.609 "/>
<polygon fill="#00A651" stroke="#FFFFFF" stroke-miterlimit="10" points="819.434,751.911 810.527,747.654 796.432,774.993 
	806.107,779.607 827.656,765.482 820.516,754.568 "/>
<polygon fill="#00A651" stroke="#FFFFFF" stroke-miterlimit="10" points="789.988,771.922 806.107,779.607 795.963,803.83 
	778.945,796.049 "/>
<polygon fill="#00A651" stroke="#FFFFFF" stroke-miterlimit="10" points="773.311,763.971 756.631,756.025 745.352,780.686 
	762.145,788.375 "/>
<polygon fill="#00A651" stroke="#FFFFFF" stroke-miterlimit="10" points="748.691,730.75 774.516,743.066 766.24,760.598 
	740.35,748.271 "/>
</svg>
